<?xml version="1.0" encoding="UTF-8" standalone="no"?>
<!-- Generator: Adobe Illustrator 21.0.0, SVG Export Plug-In . SVG Version: 6.00 Build 0)  -->

<svg
   xmlns:i="&amp;ns_ai;"
   xmlns:dc="http://purl.org/dc/elements/1.1/"
   xmlns:cc="http://creativecommons.org/ns#"
   xmlns:rdf="http://www.w3.org/1999/02/22-rdf-syntax-ns#"
   xmlns:svg="http://www.w3.org/2000/svg"
   xmlns="http://www.w3.org/2000/svg"
   xmlns:sodipodi="http://sodipodi.sourceforge.net/DTD/sodipodi-0.dtd"
   xmlns:inkscape="http://www.inkscape.org/namespaces/inkscape"
   version="1.1"
   id="Layer_1"
   x="0px"
   y="0px"
   viewBox="0 0 900 145"
   style="enable-background:new 0 0 900 145;"
   xml:space="preserve"
   inkscape:version="0.91 r13725"
   sodipodi:docname="HMI_HVAC_Fan_Section.svg"><metadata
     id="metadata49"><rdf:RDF><cc:Work
         rdf:about=""><dc:format>image/svg+xml</dc:format><dc:type
           rdf:resource="http://purl.org/dc/dcmitype/StillImage" /></cc:Work></rdf:RDF></metadata><defs
     id="defs47" /><sodipodi:namedview
     pagecolor="#ffffff"
     bordercolor="#666666"
     borderopacity="1"
     objecttolerance="10"
     gridtolerance="10"
     guidetolerance="10"
     inkscape:pageopacity="0"
     inkscape:pageshadow="2"
     inkscape:window-width="2560"
     inkscape:window-height="1464"
     id="namedview45"
     showgrid="false"
     inkscape:zoom="0.74666667"
     inkscape:cx="199.55357"
     inkscape:cy="72.5"
     inkscape:window-x="0"
     inkscape:window-y="0"
     inkscape:window-maximized="1"
     inkscape:current-layer="Layer_1" /><style
     type="text/css"
     id="style3">
	.st0{fill:none;stroke:#36333A;stroke-width:20;stroke-linecap:round;stroke-linejoin:round;stroke-miterlimit:10;}
	.st1{fill:none;stroke:url(#SVGID_1_);stroke-width:20;stroke-linecap:round;stroke-linejoin:round;stroke-miterlimit:10;}
	.st2{fill:none;stroke:#FFFFFF;stroke-width:2;stroke-miterlimit:10;}
	.st3{fill:url(#SVGID_2_);}
	.st4{fill:#FFFFFF;}
	.st5{font-family:'Roboto-Regular';}
	.st6{font-size:16px;}
	.st7{letter-spacing:2;}
</style><switch
     id="switch5"><g
       i:extraneous="self"
       id="g7"><g
         id="g9"><g
           id="g11"><g
             id="g13"><line
               class="st0"
               x1="164.2"
               y1="69.1"
               x2="878.2"
               y2="69.1"
               id="line15" /><linearGradient
               id="SVGID_1_"
               gradientUnits="userSpaceOnUse"
               x1="154.177"
               y1="69.0668"
               x2="361.687"
               y2="69.0668"><stop
                 offset="0"
                 style="stop-color:#59FF7F"
                 id="stop18" /><stop
                 offset="1"
                 style="stop-color:#6BFBFF"
                 id="stop20" /></linearGradient><line
               class="st1"
               x1="164.2"
               y1="69.1"
               x2="351.7"
               y2="69.1"
               id="line22" /></g></g><g
           id="g24"><ellipse
             transform="matrix(0.8685 -0.4958 0.4958 0.8685 -26.7761 48.9248)"
             class="st2"
             cx="78.8"
             cy="74.9"
             rx="3.7"
             ry="3.7"
             id="ellipse26" /><path
             class="st2"
             d="M79.9,66.2c-1.8-0.2-3.8,0.1-5.5,1.1c-0.6,0.3-1.1,0.7-1.6,1.2c-0.2-0.5-0.3-1-0.5-1.6      c-1.4-5.9,4.5-8.1,5.1-14.1c0.9-8.6-10.6-8.8-15.3-3.7c-6.2,6.7-3.6,14-0.4,18.3c2.5,3.2,5.5,5.2,8.3,6.3      c-0.2,1.8,0.1,3.8,1.1,5.5c0.3,0.6,0.7,1.1,1.2,1.6c-0.5,0.2-1,0.3-1.6,0.5c-5.9,1.4-8.1-4.5-14.1-5.1      c-8.6-0.9-8.8,10.6-3.7,15.3c6.7,6.2,14,3.6,18.3,0.3c3.2-2.5,5.2-5.5,6.3-8.3c1.8,0.2,3.8-0.1,5.5-1.1c0.6-0.3,1.1-0.7,1.6-1.2      c0.2,0.5,0.3,1,0.5,1.6c1.4,5.9-4.5,8.1-5.1,14.1c-0.9,8.6,10.6,8.8,15.3,3.7c6.2-6.7,3.6-14,0.3-18.3c-2.5-3.2-5.5-5.2-8.3-6.3      c0.2-1.8-0.1-3.8-1.1-5.5c-0.3-0.6-0.7-1.1-1.2-1.6c0.5-0.2,1-0.3,1.6-0.5c5.9-1.4,8.1,4.5,14.1,5.1c8.6,0.9,8.8-10.6,3.7-15.3      c-6.7-6.2-14-3.6-18.3-0.4c-1.2,0.9-2.2,1.8-3,2.8"
             id="path28" /></g><g
           id="g30"><linearGradient
             id="SVGID_2_"
             gradientUnits="userSpaceOnUse"
             x1="-4.3195"
             y1="159.1441"
             x2="167.2165"
             y2="-5.2983"
             gradientTransform="matrix(1 5.464556e-03 -5.464556e-03 1 -2.4902 -4.61)"><stop
               offset="0"
               style="stop-color:#59FF7F"
               id="stop33" /><stop
               offset="1"
               style="stop-color:#6BFBFF"
               id="stop35" /></linearGradient><path
             class="st3"
             d="M78.8,129.5c-0.1,0-0.2,0-0.3,0c-31.4-0.2-56.9-25.9-56.7-57.3c0.2-31.3,25.7-56.7,57-56.7      c0.1,0,0.2,0,0.3,0c31.4,0.2,56.9,25.9,56.7,57.3l0,0C135.6,104.1,110.1,129.5,78.8,129.5z M78.8,17.5      c-30.2,0-54.8,24.5-55,54.7c-0.2,30.3,24.4,55.1,54.7,55.3c0.1,0,0.2,0,0.3,0c30.2,0,54.8-24.5,55-54.7      c0.2-30.3-24.4-55.1-54.7-55.3C79,17.5,78.9,17.5,78.8,17.5z"
             id="path37" /></g><circle
           class="st4"
           cx="351.7"
           cy="69.1"
           r="10"
           id="circle39" /><g
           id="g41"><text
             transform="matrix(1 0 0 1 164.1769 107.3239)"
             class="st4 st5 st6 st7"
             id="text43">Fan Speed</text>
</g></g></g></switch></svg>