<?xml version="1.0" encoding="UTF-8" standalone="no"?>
<!-- Generator: Adobe Illustrator 21.0.0, SVG Export Plug-In . SVG Version: 6.00 Build 0)  -->

<svg
   xmlns:i="&amp;ns_ai;"
   xmlns:dc="http://purl.org/dc/elements/1.1/"
   xmlns:cc="http://creativecommons.org/ns#"
   xmlns:rdf="http://www.w3.org/1999/02/22-rdf-syntax-ns#"
   xmlns:svg="http://www.w3.org/2000/svg"
   xmlns="http://www.w3.org/2000/svg"
   xmlns:sodipodi="http://sodipodi.sourceforge.net/DTD/sodipodi-0.dtd"
   xmlns:inkscape="http://www.inkscape.org/namespaces/inkscape"
   version="1.1"
   id="Layer_2"
   x="0px"
   y="0px"
   viewBox="0 0 377 575"
   style="enable-background:new 0 0 377 575;"
   xml:space="preserve"
   inkscape:version="0.91 r13725"
   sodipodi:docname="HMI_HVAC_LeftChair_Section.svg"><metadata
     id="metadata102"><rdf:RDF><cc:Work
         rdf:about=""><dc:format>image/svg+xml</dc:format><dc:type
           rdf:resource="http://purl.org/dc/dcmitype/StillImage" /></cc:Work></rdf:RDF></metadata><defs
     id="defs100" /><sodipodi:namedview
     pagecolor="#ffffff"
     bordercolor="#666666"
     borderopacity="1"
     objecttolerance="10"
     gridtolerance="10"
     guidetolerance="10"
     inkscape:pageopacity="0"
     inkscape:pageshadow="2"
     inkscape:window-width="2560"
     inkscape:window-height="1464"
     id="namedview98"
     showgrid="false"
     inkscape:zoom="0.41043478"
     inkscape:cx="-1370.822"
     inkscape:cy="287.5"
     inkscape:window-x="0"
     inkscape:window-y="0"
     inkscape:window-maximized="1"
     inkscape:current-layer="Layer_2" /><style
     type="text/css"
     id="style3">
	.st0{opacity:0.8;fill:#1B1A1D;}
	.st1{fill:none;stroke:#ACACA5;stroke-width:2;stroke-miterlimit:10;}
	.st2{fill:#66FF99;}
	.st3{font-family:'Roboto-Light';}
	.st4{font-size:70px;}
	.st5{fill:#FFFFFF;}
	.st6{font-family:'Roboto-Regular';}
	.st7{font-size:140px;}
	.st8{fill:none;stroke:#66FF99;stroke-miterlimit:10;}
	.st9{fill:none;stroke:url(#SVGID_1_);stroke-miterlimit:10;}
	.st10{fill:url(#SVGID_2_);}
	.st11{fill:none;stroke:#66FF99;stroke-width:4;stroke-miterlimit:10;}
	.st12{opacity:0.43;fill:url(#SVGID_3_);}
	.st13{font-size:16px;}
	.st14{letter-spacing:2;}
</style><switch
     id="switch5"><g
       i:extraneous="self"
       id="g7"><rect
         x="6"
         y="5.4"
         class="st0"
         width="120"
         height="120"
         id="rect9" /><rect
         x="6"
         y="133.1"
         class="st0"
         width="120"
         height="120"
         id="rect11" /><g
         id="g13"><line
           class="st1"
           x1="38.4"
           y1="64"
           x2="93.5"
           y2="64"
           id="line15" /><line
           class="st1"
           x1="66"
           y1="36.5"
           x2="66"
           y2="91.5"
           id="line17" /></g><g
         id="g19"><line
           class="st1"
           x1="38.5"
           y1="192.8"
           x2="93.4"
           y2="192.8"
           id="line21" /></g><text
         transform="matrix(1 5.460000e-03 -5.460000e-03 1 170.7961 98.6537)"
         class="st2 st3 st4"
         id="text23">lo</text>
<text
         transform="matrix(1 0 0 1 159.9067 228.9015)"
         class="st5 st6 st7"
         id="text25">62°</text>
<rect
         x="81.5"
         y="530.9"
         class="st2"
         width="78.6"
         height="9.6"
         id="rect27" /><rect
         x="166.6"
         y="530.9"
         class="st0"
         width="78.6"
         height="9.6"
         id="rect29" /><rect
         x="166.6"
         y="530.9"
         class="st8"
         width="78.6"
         height="9.6"
         id="rect31" /><g
         id="g33"><g
           id="g35"><linearGradient
             id="SVGID_1_"
             gradientUnits="userSpaceOnUse"
             x1="253.4457"
             y1="417.3826"
             x2="73.8596"
             y2="417.3826"><stop
               offset="0"
               style="stop-color:#59FF7F"
               id="stop38" /><stop
               offset="1"
               style="stop-color:#6BFBFF"
               id="stop40" /></linearGradient><polyline
             class="st9"
             points="74.4,527.6 74.4,546 252.9,546 252.9,288.3     "
             id="polyline42" /><g
             id="g44"><linearGradient
               id="SVGID_2_"
               gradientUnits="userSpaceOnUse"
               x1="253.4457"
               y1="288.4385"
               x2="73.8596"
               y2="288.4385"><stop
                 offset="0"
                 style="stop-color:#59FF7F"
                 id="stop47" /><stop
                 offset="1"
                 style="stop-color:#6BFBFF"
                 id="stop49" /></linearGradient><circle
               class="st10"
               cx="252.9"
               cy="288.4"
               r="3.8"
               id="circle51" /></g></g></g><g
         id="g53"><path
           class="st11"
           d="M98.7,475.6H191l39.2-114.9c0,0,2.5-10.9-9.1-11.4s-19,16.2-19,16.2s-12.3,40.7-24.1,70.4     c0,0-76.7-4.6-89.8-4.6s-16.6,5.1-12.5,14.1S98.7,475.6,98.7,475.6z"
           id="path55" /><linearGradient
           id="SVGID_3_"
           gradientUnits="userSpaceOnUse"
           x1="85.8052"
           y1="539.3391"
           x2="200.1687"
           y2="336.7523"><stop
             offset="0"
             style="stop-color:#59FF7F"
             id="stop58" /><stop
             offset="1"
             style="stop-color:#6BFBFF"
             id="stop60" /></linearGradient><path
           class="st12"
           d="M98.7,475.6H191l39.2-114.9c0,0,2.5-10.9-9.1-11.4s-19,16.2-19,16.2s-12.3,40.7-24.1,70.4     c0,0-76.7-4.6-89.8-4.6s-16.6,5.1-12.5,14.1S98.7,475.6,98.7,475.6z"
           id="path62" /><g
           id="g64"><g
             id="g66"><path
               class="st11"
               d="M108.8,503.9c0,0,35.8-24,12.9-58.3c-17.5-26.3-25.5-41.8-24.4-56.7"
               id="path68" /><g
               id="g70"><polygon
                 class="st2"
                 points="106.8,394 100.8,375 87.3,389.6       "
                 id="polygon72" /></g></g></g><g
           id="g74"><g
             id="g76"><path
               class="st11"
               d="M132.4,503.9c0,0,35.8-24,12.9-58.3c-17.5-26.3-25.5-41.8-24.4-56.7"
               id="path78" /><g
               id="g80"><polygon
                 class="st2"
                 points="130.4,394 124.4,375 110.9,389.6       "
                 id="polygon82" /></g></g></g><g
           id="g84"><g
             id="g86"><path
               class="st11"
               d="M156.7,503.9c0,0,35.8-24,12.9-58.3c-17.5-26.3-25.5-41.8-24.4-56.7"
               id="path88" /><g
               id="g90"><polygon
                 class="st2"
                 points="154.7,394 148.7,375 135.2,389.6       "
                 id="polygon92" /></g></g></g></g><g
         id="g94"><text
           transform="matrix(1 0 0 1 74.3595 571.53)"
           class="st5 st6 st13 st14"
           id="text96">L. Climate</text>
</g></g></switch></svg>