<?xml version="1.0" encoding="UTF-8" standalone="no"?>
<!-- Generator: Adobe Illustrator 21.0.0, SVG Export Plug-In . SVG Version: 6.00 Build 0)  -->

<svg
   xmlns:i="&amp;ns_ai;"
   xmlns:dc="http://purl.org/dc/elements/1.1/"
   xmlns:cc="http://creativecommons.org/ns#"
   xmlns:rdf="http://www.w3.org/1999/02/22-rdf-syntax-ns#"
   xmlns:svg="http://www.w3.org/2000/svg"
   xmlns="http://www.w3.org/2000/svg"
   xmlns:sodipodi="http://sodipodi.sourceforge.net/DTD/sodipodi-0.dtd"
   xmlns:inkscape="http://www.inkscape.org/namespaces/inkscape"
   version="1.1"
   id="Layer_2"
   x="0px"
   y="0px"
   viewBox="0 0 377 575"
   style="enable-background:new 0 0 377 575;"
   xml:space="preserve"
   inkscape:version="0.91 r13725"
   sodipodi:docname="HMI_HVAC_RightChair_Section.svg"><metadata
     id="metadata106"><rdf:RDF><cc:Work
         rdf:about=""><dc:format>image/svg+xml</dc:format><dc:type
           rdf:resource="http://purl.org/dc/dcmitype/StillImage" /></cc:Work></rdf:RDF></metadata><defs
     id="defs104" /><sodipodi:namedview
     pagecolor="#ffffff"
     bordercolor="#666666"
     borderopacity="1"
     objecttolerance="10"
     gridtolerance="10"
     guidetolerance="10"
     inkscape:pageopacity="0"
     inkscape:pageshadow="2"
     inkscape:window-width="2560"
     inkscape:window-height="1464"
     id="namedview102"
     showgrid="false"
     inkscape:zoom="0.41043478"
     inkscape:cx="-1186.8708"
     inkscape:cy="287.5"
     inkscape:window-x="0"
     inkscape:window-y="0"
     inkscape:window-maximized="1"
     inkscape:current-layer="Layer_2" /><style
     type="text/css"
     id="style3">
	.st0{opacity:0.8;fill:#1B1A1D;}
	.st1{fill:none;stroke:#ACACA5;stroke-width:2;stroke-miterlimit:10;}
	.st2{fill:#FFFFFF;}
	.st3{font-family:'Roboto-Regular';}
	.st4{font-size:140px;}
	.st5{fill:#66FF99;}
	.st6{font-family:'Roboto-Light';}
	.st7{font-size:70px;}
	.st8{fill:none;stroke:#848286;stroke-miterlimit:10;}
	.st9{fill:none;stroke:url(#SVGID_1_);stroke-miterlimit:10;}
	.st10{fill:url(#SVGID_2_);}
	.st11{opacity:0.43;fill:url(#SVGID_3_);}
	.st12{fill:none;stroke:#66FF99;stroke-width:4;stroke-miterlimit:10;}
	.st13{font-size:16px;}
	.st14{letter-spacing:2;}
</style><switch
     id="switch5"><g
       i:extraneous="self"
       id="g7"><g
         id="g9"><rect
           x="215.2"
           y="6.2"
           class="st0"
           width="120"
           height="120"
           id="rect11" /><rect
           x="215.2"
           y="134"
           class="st0"
           width="120"
           height="120"
           id="rect13" /><g
           id="g15"><line
             class="st1"
             x1="247.7"
             y1="64.9"
             x2="302.7"
             y2="64.9"
             id="line17" /><line
             class="st1"
             x1="275.2"
             y1="37.4"
             x2="275.2"
             y2="92.4"
             id="line19" /></g><g
           id="g21"><line
             class="st1"
             x1="247.7"
             y1="193.7"
             x2="302.7"
             y2="193.7"
             id="line23" /></g><text
           transform="matrix(1 5.460000e-03 -5.460000e-03 1 5.0505 229.7825)"
           class="st2 st3 st4"
           id="text25">62°</text>
<text
           transform="matrix(1 5.460000e-03 -5.460000e-03 1 15.5522 99.5382)"
           class="st5 st6 st7"
           id="text27">Lo</text>
<rect
           x="93.1"
           y="531.8"
           class="st0"
           width="78.6"
           height="9.6"
           id="rect29" /><rect
           x="93.1"
           y="531.8"
           class="st8"
           width="78.6"
           height="9.6"
           id="rect31" /><rect
           x="178.1"
           y="531.8"
           class="st0"
           width="78.6"
           height="9.6"
           id="rect33" /><rect
           x="178.1"
           y="531.8"
           class="st8"
           width="78.6"
           height="9.6"
           id="rect35" /><g
           id="g37"><g
             id="g39"><linearGradient
               id="SVGID_1_"
               gradientUnits="userSpaceOnUse"
               x1="84.4673"
               y1="418.2673"
               x2="264.0533"
               y2="418.2673"><stop
                 offset="0"
                 style="stop-color:#59FF7F"
                 id="stop42" /><stop
                 offset="1"
                 style="stop-color:#6BFBFF"
                 id="stop44" /></linearGradient><polyline
               class="st9"
               points="263.6,528.4 263.6,546.9 85,546.9 85,289.1      "
               id="polyline46" /><g
               id="g48"><linearGradient
                 id="SVGID_2_"
                 gradientUnits="userSpaceOnUse"
                 x1="84.4673"
                 y1="289.3232"
                 x2="264.0534"
                 y2="289.3232"><stop
                   offset="0"
                   style="stop-color:#59FF7F"
                   id="stop51" /><stop
                   offset="1"
                   style="stop-color:#6BFBFF"
                   id="stop53" /></linearGradient><circle
                 class="st10"
                 cx="85"
                 cy="289.3"
                 r="3.8"
                 id="circle55" /></g></g></g><g
           id="g57"><linearGradient
             id="SVGID_3_"
             gradientUnits="userSpaceOnUse"
             x1="-543.1716"
             y1="540.2239"
             x2="-428.8081"
             y2="337.6371"
             gradientTransform="matrix(-1 0 0 1 -291.8747 0)"><stop
               offset="0"
               style="stop-color:#59FF7F"
               id="stop60" /><stop
               offset="1"
               style="stop-color:#6BFBFF"
               id="stop62" /></linearGradient><path
             class="st11"
             d="M238.4,476.5h-92.4l-39.2-114.9c0,0-2.5-10.9,9.1-11.4s19,16.2,19,16.2s12.3,40.7,24.1,70.4      c0,0,76.7-4.6,89.8-4.6s16.6,5.1,12.5,14.1C257.1,455.3,238.4,476.5,238.4,476.5z"
             id="path64" /><g
             id="g66"><g
               id="g68"><path
                 class="st12"
                 d="M228.3,504.8c0,0-35.8-24-12.9-58.3c17.5-26.3,25.5-41.8,24.4-56.7"
                 id="path70" /><g
                 id="g72"><polygon
                   class="st5"
                   points="249.8,390.5 236.3,375.8 230.3,394.9        "
                   id="polygon74" /></g></g></g><g
             id="g76"><g
               id="g78"><path
                 class="st12"
                 d="M204.7,504.8c0,0-35.8-24-12.9-58.3c17.5-26.3,25.5-41.8,24.4-56.7"
                 id="path80" /><g
                 id="g82"><polygon
                   class="st5"
                   points="226.2,390.5 212.7,375.8 206.7,394.9        "
                   id="polygon84" /></g></g></g><g
             id="g86"><g
               id="g88"><path
                 class="st12"
                 d="M180.4,504.8c0,0-35.8-24-12.9-58.3c17.5-26.3,25.5-41.8,24.4-56.7"
                 id="path90" /><g
                 id="g92"><polygon
                   class="st5"
                   points="201.9,390.5 188.4,375.8 182.4,394.9        "
                   id="polygon94" /></g></g></g><path
             class="st12"
             d="M238.4,476.5h-92.4l-39.2-114.9c0,0-2.5-10.9,9.1-11.4s19,16.2,19,16.2s12.3,40.7,24.1,70.4      c0,0,76.7-4.6,89.8-4.6s16.6,5.1,12.5,14.1C257.1,455.3,238.4,476.5,238.4,476.5z"
             id="path96" /></g><g
           id="g98"><text
             transform="matrix(1 0 0 1 157.4469 572.4147)"
             class="st2 st3 st13 st14"
             id="text100">R. Climate</text>
</g></g></g></switch></svg>