<?xml version="1.0" encoding="UTF-8" standalone="no"?>
<!-- Generator: Adobe Illustrator 21.0.0, SVG Export Plug-In . SVG Version: 6.00 Build 0)  -->

<svg
   xmlns:i="&amp;ns_ai;"
   xmlns:dc="http://purl.org/dc/elements/1.1/"
   xmlns:cc="http://creativecommons.org/ns#"
   xmlns:rdf="http://www.w3.org/1999/02/22-rdf-syntax-ns#"
   xmlns:svg="http://www.w3.org/2000/svg"
   xmlns="http://www.w3.org/2000/svg"
   xmlns:sodipodi="http://sodipodi.sourceforge.net/DTD/sodipodi-0.dtd"
   xmlns:inkscape="http://www.inkscape.org/namespaces/inkscape"
   version="1.1"
   id="Layer_1"
   x="0px"
   y="0px"
   viewBox="0 0 80 80"
   style="enable-background:new 0 0 80 80;"
   xml:space="preserve"
   inkscape:version="0.91 r13725"
   sodipodi:docname="HMI_Settings_Wifi_Full.svg"><metadata
     id="metadata29"><rdf:RDF><cc:Work
         rdf:about=""><dc:format>image/svg+xml</dc:format><dc:type
           rdf:resource="http://purl.org/dc/dcmitype/StillImage" /></cc:Work></rdf:RDF></metadata><defs
     id="defs27" /><sodipodi:namedview
     pagecolor="#ffffff"
     bordercolor="#666666"
     borderopacity="1"
     objecttolerance="10"
     gridtolerance="10"
     guidetolerance="10"
     inkscape:pageopacity="0"
     inkscape:pageshadow="2"
     inkscape:window-width="2560"
     inkscape:window-height="1464"
     id="namedview25"
     showgrid="false"
     inkscape:zoom="2.95"
     inkscape:cx="-164.40678"
     inkscape:cy="40"
     inkscape:window-x="0"
     inkscape:window-y="0"
     inkscape:window-maximized="1"
     inkscape:current-layer="Layer_1" /><style
     type="text/css"
     id="style3">
	.st0{fill:#FFFFFF;}
</style><switch
     id="switch5"><g
       i:extraneous="self"
       id="g7"><g
         id="g9"><ellipse
           class="st0"
           cx="39.3"
           cy="64.2"
           rx="5.2"
           ry="5"
           id="ellipse11" /><g
           id="g13"><path
             class="st0"
             d="M7.9,39.8c7.7-8.3,18.9-13.6,31.4-13.6c13.7,0,25.8,6.3,33.5,16.1l5.3-4.8c-9.1-11.2-23.1-18.3-38.9-18.3      C25,19.1,12,25.1,3,34.6L7.9,39.8z"
             id="path15" /></g><g
           id="g17"><path
             class="st0"
             d="M17.1,49.3c5.3-6.2,13.3-10.2,22.2-10.2c9.8,0,18.4,4.8,23.7,12l5.3-4.8c-6.6-8.6-17.1-14.2-29-14.2      c-10.9,0-20.6,4.7-27.2,12L17.1,49.3z"
             id="path19" /></g><g
           id="g21"><path
             class="st0"
             d="M27.1,59.8c2.6-4,7.1-6.6,12.2-6.6c5.6,0,10.5,3.1,12.9,7.7l5.4-4.9c-3.8-5.9-10.6-9.8-18.3-9.8      c-7.1,0-13.3,3.3-17.3,8.4L27.1,59.8z"
             id="path23" /></g></g></g></switch></svg>