<?xml version="1.0" encoding="UTF-8" standalone="no"?>
<!-- Generator: Adobe Illustrator 21.0.0, SVG Export Plug-In . SVG Version: 6.00 Build 0)  -->

<svg
   xmlns:i="&amp;ns_ai;"
   xmlns:dc="http://purl.org/dc/elements/1.1/"
   xmlns:cc="http://creativecommons.org/ns#"
   xmlns:rdf="http://www.w3.org/1999/02/22-rdf-syntax-ns#"
   xmlns:svg="http://www.w3.org/2000/svg"
   xmlns="http://www.w3.org/2000/svg"
   xmlns:sodipodi="http://sodipodi.sourceforge.net/DTD/sodipodi-0.dtd"
   xmlns:inkscape="http://www.inkscape.org/namespaces/inkscape"
   version="1.1"
   id="Layer_1"
   x="0px"
   y="0px"
   viewBox="0 0 53 32"
   style="enable-background:new 0 0 53 32;"
   xml:space="preserve"
   inkscape:version="0.91 r13725"
   sodipodi:docname="HMI_Phone_Back_Icon.svg"><metadata
     id="metadata15"><rdf:RDF><cc:Work
         rdf:about=""><dc:format>image/svg+xml</dc:format><dc:type
           rdf:resource="http://purl.org/dc/dcmitype/StillImage" /></cc:Work></rdf:RDF></metadata><defs
     id="defs13" /><sodipodi:namedview
     pagecolor="#ffffff"
     bordercolor="#666666"
     borderopacity="1"
     objecttolerance="10"
     gridtolerance="10"
     guidetolerance="10"
     inkscape:pageopacity="0"
     inkscape:pageshadow="2"
     inkscape:window-width="2560"
     inkscape:window-height="1464"
     id="namedview11"
     showgrid="false"
     inkscape:zoom="7.375"
     inkscape:cx="-31.262712"
     inkscape:cy="16"
     inkscape:window-x="0"
     inkscape:window-y="0"
     inkscape:window-maximized="1"
     inkscape:current-layer="Layer_1" /><style
     type="text/css"
     id="style3">
	.st0{fill:#FFFFFF;}
</style><switch
     id="switch5"><g
       i:extraneous="self"
       id="g7"><path
         class="st0"
         d="M51.2,0H16.1c-0.5,0-0.9,0.2-1.3,0.5L0.5,14.7C0.2,15.1,0,15.5,0,16c0,0.5,0.2,0.9,0.5,1.3l14.3,14.2    c0.3,0.3,0.8,0.5,1.3,0.5h35.1c1,0,1.8-0.8,1.8-1.8V1.8C53,0.8,52.2,0,51.2,0z M38.5,20.3c0.8,0.8,0.9,2.2,0,3    c-0.8,0.8-2.2,0.8-3.1,0L31.1,19l-4.3,4.3c-0.8,0.8-2.2,0.8-3.1,0c-0.8-0.8-0.8-2.2,0-3l4.3-4.3l-4.3-4.3c-0.8-0.8-0.8-2.2,0-3    c0.8-0.8,2.2-0.8,3.1,0l4.3,4.3l4.3-4.3c0.8-0.8,2.2-0.8,3.1,0c0.8,0.8,0.8,2.2,0,3L34.2,16L38.5,20.3z"
         id="path9" /></g></switch></svg>