<?xml version="1.0" encoding="UTF-8" standalone="no"?>
<!-- Generator: Adobe Illustrator 21.0.0, SVG Export Plug-In . SVG Version: 6.00 Build 0)  -->

<svg
   xmlns:i="&amp;ns_ai;"
   xmlns:dc="http://purl.org/dc/elements/1.1/"
   xmlns:cc="http://creativecommons.org/ns#"
   xmlns:rdf="http://www.w3.org/1999/02/22-rdf-syntax-ns#"
   xmlns:svg="http://www.w3.org/2000/svg"
   xmlns="http://www.w3.org/2000/svg"
   xmlns:sodipodi="http://sodipodi.sourceforge.net/DTD/sodipodi-0.dtd"
   xmlns:inkscape="http://www.inkscape.org/namespaces/inkscape"
   version="1.1"
   id="Layer_1"
   x="0px"
   y="0px"
   viewBox="0 0 105 105"
   style="enable-background:new 0 0 105 105;"
   xml:space="preserve"
   inkscape:version="0.91 r13725"
   sodipodi:docname="HMI_Phone_Contacts-01.svg"><metadata
     id="metadata31"><rdf:RDF><cc:Work
         rdf:about=""><dc:format>image/svg+xml</dc:format><dc:type
           rdf:resource="http://purl.org/dc/dcmitype/StillImage" /></cc:Work></rdf:RDF></metadata><defs
     id="defs29" /><sodipodi:namedview
     pagecolor="#ffffff"
     bordercolor="#666666"
     borderopacity="1"
     objecttolerance="10"
     gridtolerance="10"
     guidetolerance="10"
     inkscape:pageopacity="0"
     inkscape:pageshadow="2"
     inkscape:window-width="2560"
     inkscape:window-height="1464"
     id="namedview27"
     showgrid="false"
     inkscape:zoom="2.247619"
     inkscape:cx="-136.58898"
     inkscape:cy="52.5"
     inkscape:window-x="0"
     inkscape:window-y="0"
     inkscape:window-maximized="1"
     inkscape:current-layer="Layer_1" /><style
     type="text/css"
     id="style3">
	.st0{opacity:0.8;fill:#1B1A1D;}
	.st1{fill:url(#SVGID_1_);}
	.st2{fill:url(#SVGID_2_);}
</style><switch
     id="switch5"><g
       i:extraneous="self"
       id="g7"><g
         id="g9"><rect
           class="st0"
           width="105"
           height="105"
           id="rect11" /><linearGradient
           id="SVGID_1_"
           gradientUnits="userSpaceOnUse"
           x1="25.8899"
           y1="61.9762"
           x2="91.819"
           y2="17.6801"><stop
             offset="0"
             style="stop-color:#59FF7F"
             id="stop14" /><stop
             offset="1"
             style="stop-color:#6BFBFF"
             id="stop16" /></linearGradient><path
           class="st1"
           d="M52,58.8C52,58.8,52,58.8,52,58.8c5.6,0,12.3-7,12.3-15.6v0c0-6.8-5.5-12.3-12.3-12.3c0,0,0,0,0,0     c-6.8,0-12.3,5.5-12.3,12.3C39.7,51.8,46.4,58.8,52,58.8z M52,34.9C52,34.9,52,34.9,52,34.9c4.6,0,8.3,3.7,8.3,8.3     c0,4.9-4.1,11.5-8.3,11.6c0,0,0,0,0,0c-4.2,0-8.3-6.6-8.3-11.5C43.7,38.7,47.4,34.9,52,34.9z"
           id="path18" /><linearGradient
           id="SVGID_2_"
           gradientUnits="userSpaceOnUse"
           x1="1.4091"
           y1="71.7406"
           x2="96.8002"
           y2="37.5399"><stop
             offset="0"
             style="stop-color:#59FF7F"
             id="stop21" /><stop
             offset="1"
             style="stop-color:#6BFBFF"
             id="stop23" /></linearGradient><path
           class="st2"
           d="M52.5,15.7c-20.8,0-37.7,16.9-37.7,37.7c0,15.1,8.9,28.2,21.8,34.2c1.3,0.6,2.6,1.1,3.9,1.6     c3.8,1.3,7.8,2,12,2c4.1,0,8.1-0.7,11.8-1.9c1.3-0.4,2.6-1,3.9-1.5c13-6,22-19.1,22-34.3C90.2,32.6,73.3,15.7,52.5,15.7z      M52.5,90.1c-4.2,0-8.2-0.7-11.9-2l1.4-20.6c1.2-1,4.6-3.2,10.5-3.2c0,0,0,0,0,0c5.9,0,9.3,2.2,10.4,3.2l1.4,20.7     C60.6,89.5,56.6,90.1,52.5,90.1z M68.2,86.6l-1.4-20.2c0-0.5-0.2-0.9-0.5-1.2c-0.2-0.2-4.7-4.9-13.9-4.9c0,0,0,0,0,0     c-9.2,0-13.7,4.7-13.9,4.9C38.2,65.5,38,66,38,66.4l-1.3,20.1C24.3,80.6,15.8,68,15.8,53.4c0-20.2,16.5-36.7,36.7-36.7     c20.2,0,36.7,16.5,36.7,36.7C89.2,68.1,80.6,80.7,68.2,86.6z"
           id="path25" /></g></g></switch></svg>