<?xml version="1.0" encoding="UTF-8" standalone="no"?>
<!-- Generator: Adobe Illustrator 21.0.0, SVG Export Plug-In . SVG Version: 6.00 Build 0)  -->

<svg
   xmlns:i="&amp;#38;ns_ai;"
   xmlns:dc="http://purl.org/dc/elements/1.1/"
   xmlns:cc="http://creativecommons.org/ns#"
   xmlns:rdf="http://www.w3.org/1999/02/22-rdf-syntax-ns#"
   xmlns:svg="http://www.w3.org/2000/svg"
   xmlns="http://www.w3.org/2000/svg"
   xmlns:sodipodi="http://sodipodi.sourceforge.net/DTD/sodipodi-0.dtd"
   xmlns:inkscape="http://www.inkscape.org/namespaces/inkscape"
   version="1.1"
   x="0px"
   y="0px"
   viewBox="0 0 92 92"
   style="enable-background:new 0 0 92 92;"
   xml:space="preserve"
   id="svg2"
   inkscape:version="0.91 r13725"
   sodipodi:docname="HMI_ContactScreen_SearchIcon-01.svg"><metadata
     id="metadata77"><rdf:RDF><cc:Work
         rdf:about=""><dc:format>image/svg+xml</dc:format><dc:type
           rdf:resource="http://purl.org/dc/dcmitype/StillImage" /></cc:Work></rdf:RDF></metadata><defs
     id="defs75" /><sodipodi:namedview
     pagecolor="#ffffff"
     bordercolor="#666666"
     borderopacity="1"
     objecttolerance="10"
     gridtolerance="10"
     guidetolerance="10"
     inkscape:pageopacity="0"
     inkscape:pageshadow="2"
     inkscape:window-width="2560"
     inkscape:window-height="1464"
     id="namedview73"
     showgrid="false"
     inkscape:zoom="2.5652174"
     inkscape:cx="-276.97458"
     inkscape:cy="-16.372881"
     inkscape:window-x="0"
     inkscape:window-y="0"
     inkscape:window-maximized="1"
     inkscape:current-layer="svg2" /><style
     type="text/css"
     id="style4">
	.st0{fill:none;stroke:#FFFFFF;stroke-width:2;stroke-miterlimit:10;}
	.st1{fill:url(#SVGID_1_);}
	.st2{display:none;}
	.st3{display:inline;opacity:0.15;fill:url(#SVGID_2_);}
	.st4{display:inline;opacity:0.35;fill:url(#SVGID_3_);}
	.st5{display:inline;}
	.st6{opacity:0.15;fill:url(#SVGID_4_);}
	.st7{opacity:0.15;fill:url(#SVGID_5_);stroke:url(#SVGID_6_);stroke-miterlimit:10;}
	.st8{fill:url(#SVGID_7_);}
</style><switch
     id="switch6"><g
       i:extraneous="self"
       id="g8"><g
         id="Inactive"><g
           id="g11"><g
             id="g13"><path
               class="st0"
               d="M51.5,22.8c-9.6,0-17.4,7.7-17.4,17.3c0,3.5,1,6.7,2.8,9.4L23.4,62.9c-0.3,0.3-0.4,0.9-0.1,1.2l2.5,2.5       l2.4,2.4c0.3,0.3,0.8,0.3,1.2-0.1l13.7-13.7c2.5,1.3,5.3,2.1,8.3,2.1c9.6,0,17.4-7.7,17.4-17.3C68.9,30.5,61.1,22.8,51.5,22.8z       "
               id="path15" /><path
               class="st0"
               d="M63.6,40.2c0,6.7-5.4,12.1-12.1,12.1c-6.7,0-12.1-5.4-12.1-12.1c0-6.7,5.4-12.1,12.1-12.1"
               id="path17" /></g><g
             id="g19"><linearGradient
               id="SVGID_1_"
               gradientUnits="userSpaceOnUse"
               x1="-20.5235"
               y1="114.6983"
               x2="117.909"
               y2="-18.0096"
               gradientTransform="matrix(1 5.464556e-03 -5.464556e-03 1 -2.6463 -2.4025)"><stop
                 offset="0"
                 style="stop-color:#59FF7F"
                 id="stop22" /><stop
                 offset="1"
                 style="stop-color:#6BFBFF"
                 id="stop24" /></linearGradient><path
               class="st1"
               d="M46,92c-0.1,0-0.2,0-0.3,0C20.4,91.9-0.1,71.1,0,45.7C0.1,20.5,20.7,0,46,0c0.1,0,0.2,0,0.3,0       C71.6,0.1,92.1,20.9,92,46.3l0,0C91.9,71.5,71.3,92,46,92z M46,1.6C21.6,1.6,1.7,21.4,1.6,45.8C1.5,70.2,21.3,90.3,45.8,90.4       c0.1,0,0.2,0,0.2,0c24.4,0,44.3-19.8,44.4-44.1C90.5,21.8,70.7,1.7,46.2,1.6C46.2,1.6,46.1,1.6,46,1.6z"
               id="path26" /></g></g></g></g></switch></svg>