<?xml version="1.0" encoding="UTF-8" standalone="no"?>
<!-- Generator: Adobe Illustrator 21.0.0, SVG Export Plug-In . SVG Version: 6.00 Build 0)  -->

<svg
   xmlns:i="&amp;#38;ns_ai;"
   xmlns:dc="http://purl.org/dc/elements/1.1/"
   xmlns:cc="http://creativecommons.org/ns#"
   xmlns:rdf="http://www.w3.org/1999/02/22-rdf-syntax-ns#"
   xmlns:svg="http://www.w3.org/2000/svg"
   xmlns="http://www.w3.org/2000/svg"
   xmlns:sodipodi="http://sodipodi.sourceforge.net/DTD/sodipodi-0.dtd"
   xmlns:inkscape="http://www.inkscape.org/namespaces/inkscape"
   version="1.1"
   x="0px"
   y="0px"
   viewBox="0 0 160 160"
   style="enable-background:new 0 0 160 160;"
   xml:space="preserve"
   id="svg2"
   inkscape:version="0.91 r13725"
   sodipodi:docname="HMI_ContactScreen_ImageHolder-01.svg"><metadata
     id="metadata66"><rdf:RDF><cc:Work
         rdf:about=""><dc:format>image/svg+xml</dc:format><dc:type
           rdf:resource="http://purl.org/dc/dcmitype/StillImage" /></cc:Work></rdf:RDF></metadata><defs
     id="defs64" /><sodipodi:namedview
     pagecolor="#ffffff"
     bordercolor="#666666"
     borderopacity="1"
     objecttolerance="10"
     gridtolerance="10"
     guidetolerance="10"
     inkscape:pageopacity="0"
     inkscape:pageshadow="2"
     inkscape:window-width="2560"
     inkscape:window-height="1464"
     id="namedview62"
     showgrid="false"
     inkscape:zoom="1.475"
     inkscape:cx="-597.28814"
     inkscape:cy="80"
     inkscape:window-x="0"
     inkscape:window-y="0"
     inkscape:window-maximized="1"
     inkscape:current-layer="svg2" /><style
     type="text/css"
     id="style4">
	.st0{fill:#FFFFFF;}
	.st1{display:none;}
	.st2{display:inline;opacity:0.15;fill:url(#SVGID_1_);}
	.st3{display:inline;opacity:0.35;fill:url(#SVGID_2_);}
	.st4{display:inline;}
	.st5{opacity:0.15;fill:url(#SVGID_3_);}
	.st6{opacity:0.15;fill:url(#SVGID_4_);stroke:url(#SVGID_5_);stroke-miterlimit:10;}
	.st7{fill:url(#SVGID_6_);}
</style><switch
     id="switch6"><g
       i:extraneous="self"
       id="g8"><g
         id="Inactive"><g
           id="g11"><path
             class="st0"
             d="M80.4,0L80,0C36.1,0,0.2,35.7,0,79.6c-0.2,33.1,19.9,61.7,48.6,74c0.9,0.4,1.8,0.8,2.8,1.1      c0.9,0.3,1.7,0.6,2.6,0.9c0,0,0,0,0,0c8,2.8,16.6,4.3,25.6,4.4l0.4,0c9.1,0,17.8-1.5,26-4.4c0,0,0,0,0,0      c0.8-0.3,1.7-0.6,2.5-0.9c0.3-0.1,0.6-0.2,0.9-0.3c0.7-0.3,1.3-0.5,2-0.8c0,0,0,0,0,0c28.4-12.2,48.5-40.4,48.7-73.1      C160.2,36.3,124.5,0.2,80.4,0z M80,157.2l-0.4,0c-8.9,0-17.4-1.6-25.4-4.5l2.8-43.4c2.1-1.9,9.5-7.3,22.9-7.3c0,0,0,0,0.1,0      c13.3,0,20.7,5.4,22.8,7.2l3,43.5C97.7,155.7,89,157.2,80,157.2z M111.1,150.6l-2.9-42.8c0-0.6-0.3-1.2-0.7-1.7      c-0.4-0.4-9.2-9.6-27.5-9.6c0,0-0.1,0-0.1,0c-18.4,0-27.2,9.3-27.6,9.7c-0.4,0.5-0.7,1.1-0.7,1.7l-2.8,42.7      C21.6,138.6,2.6,111.2,2.8,79.6C3,37.2,37.6,2.8,80,2.8l0.4,0C123,3,157.5,37.8,157.2,80.4C157.1,111.7,138.1,138.7,111.1,150.6      z"
             id="path13" /><path
             class="st0"
             d="M79.1,36.1C79.1,36.1,79.1,36.1,79.1,36.1c-13.2,0-24,10.8-24,24c0,12.3,10.1,30.6,24,30.6c0,0,0,0,0,0      c13.9,0,23.9-18.3,23.9-30.7C103.1,46.8,92.3,36.1,79.1,36.1z M79.2,85.2C79.2,85.2,79.2,85.2,79.2,85.2      c-9.5,0-18.5-14.1-18.5-25.1c0-10.2,8.3-18.5,18.4-18.5c0,0,0,0,0,0c10.2,0,18.4,8.3,18.4,18.4C97.6,71,88.7,85.1,79.2,85.2z"
             id="path15" /></g></g></g></switch></svg>