<?xml version="1.0" encoding="UTF-8" standalone="no"?>
<!-- Generator: Adobe Illustrator 21.0.0, SVG Export Plug-In . SVG Version: 6.00 Build 0)  -->

<svg
   xmlns:i="&amp;ns_ai;"
   xmlns:dc="http://purl.org/dc/elements/1.1/"
   xmlns:cc="http://creativecommons.org/ns#"
   xmlns:rdf="http://www.w3.org/1999/02/22-rdf-syntax-ns#"
   xmlns:svg="http://www.w3.org/2000/svg"
   xmlns="http://www.w3.org/2000/svg"
   xmlns:sodipodi="http://sodipodi.sourceforge.net/DTD/sodipodi-0.dtd"
   xmlns:inkscape="http://www.inkscape.org/namespaces/inkscape"
   version="1.1"
   id="Layer_1"
   x="0px"
   y="0px"
   viewBox="0 0 585 109"
   style="enable-background:new 0 0 585 109;"
   xml:space="preserve"
   inkscape:version="0.91 r13725"
   sodipodi:docname="HMI_Phone_Hangup.svg"><metadata
     id="metadata37"><rdf:RDF><cc:Work
         rdf:about=""><dc:format>image/svg+xml</dc:format><dc:type
           rdf:resource="http://purl.org/dc/dcmitype/StillImage" /></cc:Work></rdf:RDF></metadata><defs
     id="defs35" /><sodipodi:namedview
     pagecolor="#ffffff"
     bordercolor="#666666"
     borderopacity="1"
     objecttolerance="10"
     gridtolerance="10"
     guidetolerance="10"
     inkscape:pageopacity="0"
     inkscape:pageshadow="2"
     inkscape:window-width="2560"
     inkscape:window-height="1464"
     id="namedview33"
     showgrid="false"
     inkscape:zoom="1.1487179"
     inkscape:cx="-154.52009"
     inkscape:cy="54.5"
     inkscape:window-x="0"
     inkscape:window-y="0"
     inkscape:window-maximized="1"
     inkscape:current-layer="Layer_1" /><style
     type="text/css"
     id="style3">
	.st0{opacity:0.43;fill:url(#SVGID_1_);}
	.st1{fill:none;stroke:url(#SVGID_2_);stroke-width:2;stroke-miterlimit:10;}
	.st2{fill:none;stroke:#FFFFFF;stroke-width:4;stroke-linecap:round;stroke-linejoin:round;stroke-miterlimit:10;}
</style><switch
     id="switch5"><g
       i:extraneous="self"
       id="g7"><g
         id="g9"><linearGradient
           id="SVGID_1_"
           gradientUnits="userSpaceOnUse"
           x1="-326.4796"
           y1="511.2228"
           x2="922.6905"
           y2="-410.4949"><stop
             offset="0"
             style="stop-color:#ED1C24"
             id="stop12" /><stop
             offset="1"
             style="stop-color:#F15A24"
             id="stop14" /></linearGradient><rect
           x="1"
           y="1"
           class="st0"
           width="583"
           height="107"
           id="rect16" /><linearGradient
           id="SVGID_2_"
           gradientUnits="userSpaceOnUse"
           x1="54.1024"
           y1="198.5423"
           x2="530.8976"
           y2="-89.5423"><stop
             offset="0"
             style="stop-color:#ED1C24"
             id="stop19" /><stop
             offset="1"
             style="stop-color:#F15A24"
             id="stop21" /></linearGradient><rect
           x="1"
           y="1"
           class="st1"
           width="583"
           height="107"
           id="rect23" /><g
           id="g25"><path
             class="st2"
             d="M264.4,55c1.3-3.2,3.3-6.9,6.5-10.1c8-8,18.9-9.1,18.9-9.1c-0.5,1.7,0,3.5,1.3,4.9l6.2,6.2      c1.9,1.9,5.1,1.9,7,0l13.2-9.7c1.9-1.9,1.9-5.1,0-7l-8-8c-1.9-1.9-27.9-5.9-48,14.1c-22.6,22.6-15.2,45.2-13.3,47.2l7.6,7.6      c1.9,1.9,5.1,1.9,7,0l10-12.8c1.9-1.9,1.9-5.1,0-7l-6.2-6.2c-1.6-1.6-4.5-1.4-4.5-1.4"
             id="path27" /><line
             class="st2"
             x1="262.2"
             y1="63.7"
             x2="256.5"
             y2="69.4"
             id="line29" /><line
             class="st2"
             x1="295.7"
             y1="30.3"
             x2="290"
             y2="36"
             id="line31" /></g></g></g></switch></svg>