<?xml version="1.0" encoding="UTF-8" standalone="no"?>
<!-- Generator: Adobe Illustrator 21.0.0, SVG Export Plug-In . SVG Version: 6.00 Build 0)  -->

<svg
   xmlns:i="&amp;ns_ai;"
   xmlns:dc="http://purl.org/dc/elements/1.1/"
   xmlns:cc="http://creativecommons.org/ns#"
   xmlns:rdf="http://www.w3.org/1999/02/22-rdf-syntax-ns#"
   xmlns:svg="http://www.w3.org/2000/svg"
   xmlns="http://www.w3.org/2000/svg"
   xmlns:sodipodi="http://sodipodi.sourceforge.net/DTD/sodipodi-0.dtd"
   xmlns:inkscape="http://www.inkscape.org/namespaces/inkscape"
   version="1.1"
   id="Layer_1"
   x="0px"
   y="0px"
   viewBox="0 0 116 116"
   style="enable-background:new 0 0 116 116;"
   xml:space="preserve"
   inkscape:version="0.91 r13725"
   sodipodi:docname="HMI_Phone_Contact_BlankPhoto.svg"><metadata
     id="metadata19"><rdf:RDF><cc:Work
         rdf:about=""><dc:format>image/svg+xml</dc:format><dc:type
           rdf:resource="http://purl.org/dc/dcmitype/StillImage" /></cc:Work></rdf:RDF></metadata><defs
     id="defs17" /><sodipodi:namedview
     pagecolor="#ffffff"
     bordercolor="#666666"
     borderopacity="1"
     objecttolerance="10"
     gridtolerance="10"
     guidetolerance="10"
     inkscape:pageopacity="0"
     inkscape:pageshadow="2"
     inkscape:window-width="2560"
     inkscape:window-height="1464"
     id="namedview15"
     showgrid="false"
     inkscape:zoom="2.0344828"
     inkscape:cx="-155.81356"
     inkscape:cy="58"
     inkscape:window-x="0"
     inkscape:window-y="0"
     inkscape:window-maximized="1"
     inkscape:current-layer="Layer_1" /><style
     type="text/css"
     id="style3">
	.st0{fill:#ACACA5;}
</style><switch
     id="switch5"><g
       i:extraneous="self"
       id="g7"><g
         id="g9"><path
           class="st0"
           d="M58.3,0L58,0C26.2,0,0.2,25.9,0,57.7c-0.1,24,14.4,44.8,35.2,53.7c0.7,0.3,1.3,0.5,2,0.8     c0.6,0.2,1.3,0.5,1.9,0.7c0,0,0,0,0,0c5.8,2,12,3.1,18.5,3.2l0.3,0c6.6,0,12.9-1.1,18.8-3.2c0,0,0,0,0,0c0.6-0.2,1.2-0.4,1.8-0.7     c0.2-0.1,0.4-0.2,0.6-0.3c0.5-0.2,1-0.4,1.5-0.6c0,0,0,0,0,0c20.6-8.8,35.1-29.3,35.3-53C116.2,26.3,90.3,0.2,58.3,0z M58,114     l-0.3,0c-6.5,0-12.6-1.2-18.4-3.2l2.1-31.5c1.6-1.3,6.9-5.3,16.6-5.3c0,0,0,0,0.1,0c9.7,0,15,3.9,16.5,5.3l2.2,31.6     C70.8,112.9,64.5,114,58,114z M80.6,109.2l-2.1-31c0-0.5-0.2-0.9-0.5-1.2c-0.3-0.3-6.7-7-19.9-7c0,0,0,0-0.1,0     c-13.3,0-19.7,6.7-20,7c-0.3,0.3-0.5,0.8-0.5,1.2l-2,31C15.6,100.5,1.9,80.6,2,57.7C2.2,27,27.3,2,58,2l0.3,0     c30.9,0.2,55.9,25.4,55.7,56.3C113.9,81,100.1,100.5,80.6,109.2z"
           id="path11" /><path
           class="st0"
           d="M57.4,26.2C57.4,26.2,57.4,26.2,57.4,26.2C47.8,26.2,40,34,40,43.6c0,8.9,7.3,22.2,17.4,22.2c0,0,0,0,0,0     c10.1,0,17.3-13.3,17.3-22.2C74.7,33.9,66.9,26.2,57.4,26.2z M57.4,61.7C57.4,61.7,57.4,61.7,57.4,61.7     C50.5,61.7,44,51.5,44,43.6c0-7.4,6-13.4,13.4-13.4c0,0,0,0,0,0c7.4,0,13.4,6,13.4,13.4C70.8,51.5,64.3,61.7,57.4,61.7z"
           id="path13" /></g></g></switch></svg>