<?xml version="1.0" encoding="UTF-8" standalone="no"?>
<!-- Generator: Adobe Illustrator 21.0.0, SVG Export Plug-In . SVG Version: 6.00 Build 0)  -->

<svg
   xmlns:i="&amp;ns_ai;"
   xmlns:dc="http://purl.org/dc/elements/1.1/"
   xmlns:cc="http://creativecommons.org/ns#"
   xmlns:rdf="http://www.w3.org/1999/02/22-rdf-syntax-ns#"
   xmlns:svg="http://www.w3.org/2000/svg"
   xmlns="http://www.w3.org/2000/svg"
   xmlns:sodipodi="http://sodipodi.sourceforge.net/DTD/sodipodi-0.dtd"
   xmlns:inkscape="http://www.inkscape.org/namespaces/inkscape"
   version="1.1"
   id="Layer_1"
   x="0px"
   y="0px"
   viewBox="0 0 90 90"
   style="enable-background:new 0 0 90 90;"
   xml:space="preserve"
   inkscape:version="0.91 r13725"
   sodipodi:docname="HMI_Settings_Wifi_Locked_Full.svg"><metadata
     id="metadata35"><rdf:RDF><cc:Work
         rdf:about=""><dc:format>image/svg+xml</dc:format><dc:type
           rdf:resource="http://purl.org/dc/dcmitype/StillImage" /></cc:Work></rdf:RDF></metadata><defs
     id="defs33" /><sodipodi:namedview
     pagecolor="#ffffff"
     bordercolor="#666666"
     borderopacity="1"
     objecttolerance="10"
     gridtolerance="10"
     guidetolerance="10"
     inkscape:pageopacity="0"
     inkscape:pageshadow="2"
     inkscape:window-width="2560"
     inkscape:window-height="1464"
     id="namedview31"
     showgrid="false"
     inkscape:zoom="2.6222222"
     inkscape:cx="-130.80508"
     inkscape:cy="45"
     inkscape:window-x="0"
     inkscape:window-y="0"
     inkscape:window-maximized="1"
     inkscape:current-layer="Layer_1" /><style
     type="text/css"
     id="style3">
	.st0{fill:#FFFFFF;}
</style><switch
     id="switch5"><g
       i:extraneous="self"
       id="g7"><ellipse
         class="st0"
         cx="39.3"
         cy="69"
         rx="5.2"
         ry="5"
         id="ellipse9" /><g
         id="g11"><path
           class="st0"
           d="M7.9,44.6C15.7,36.3,26.9,31,39.3,31c13.7,0,25.8,6.3,33.5,16.1l5.3-4.8C69.1,31.2,55.1,24,39.3,24     C25,24,12,29.9,3,39.4L7.9,44.6z"
           id="path13" /></g><g
         id="g15"><path
           class="st0"
           d="M17.1,54.2C22.4,48,30.4,44,39.3,44c9.8,0,18.4,4.8,23.7,12l5.3-4.8C61.8,42.6,51.2,37,39.3,37     c-10.9,0-20.6,4.7-27.2,12L17.1,54.2z"
           id="path17" /></g><g
         id="g19"><path
           class="st0"
           d="M27.1,64.7c2.6-4,7.1-6.6,12.2-6.6c5.6,0,10.5,3.1,12.9,7.7l5.4-4.9C53.8,54.9,47,51,39.3,51     c-7.1,0-13.3,3.3-17.3,8.4L27.1,64.7z"
           id="path21" /></g><g
         id="g23"><path
           class="st0"
           d="M87.9,74H75.4c-0.7,0-1.2-0.6-1.2-1.2v-6.6h2V72h10.9v-9H75.4c0.1,0,0.1,0,0.2,0h-1.4v-0.7     c0-0.7,0.6-1.2,1.2-1.2h12.4c0.7,0,1.2,0.6,1.2,1.2v10.5C89.1,73.4,88.5,74,87.9,74z"
           id="path25" /></g><g
         id="g27"><path
           class="st0"
           d="M87.2,60h-2v-3.5c0-1.9-1.6-3.5-3.5-3.5s-3.5,1.6-3.5,3.5V60h-2v-3.5c0-3,2.5-5.5,5.5-5.5s5.5,2.5,5.5,5.5     V60z"
           id="path29" /></g></g></switch></svg>