<?xml version="1.0" encoding="UTF-8" standalone="no"?>
<!-- Generator: Adobe Illustrator 21.0.0, SVG Export Plug-In . SVG Version: 6.00 Build 0)  -->

<svg
   xmlns:i="&amp;ns_ai;"
   xmlns:dc="http://purl.org/dc/elements/1.1/"
   xmlns:cc="http://creativecommons.org/ns#"
   xmlns:rdf="http://www.w3.org/1999/02/22-rdf-syntax-ns#"
   xmlns:svg="http://www.w3.org/2000/svg"
   xmlns="http://www.w3.org/2000/svg"
   xmlns:sodipodi="http://sodipodi.sourceforge.net/DTD/sodipodi-0.dtd"
   xmlns:inkscape="http://www.inkscape.org/namespaces/inkscape"
   version="1.1"
   id="Layer_1"
   x="0px"
   y="0px"
   viewBox="0 0 82 82"
   style="enable-background:new 0 0 82 82;"
   xml:space="preserve"
   inkscape:version="0.91 r13725"
   sodipodi:docname="HMI_Dashboard_Fuel_Icon.svg"><metadata
     id="metadata24"><rdf:RDF><cc:Work
         rdf:about=""><dc:format>image/svg+xml</dc:format><dc:type
           rdf:resource="http://purl.org/dc/dcmitype/StillImage" /></cc:Work></rdf:RDF></metadata><defs
     id="defs22" /><sodipodi:namedview
     pagecolor="#ffffff"
     bordercolor="#666666"
     borderopacity="1"
     objecttolerance="10"
     gridtolerance="10"
     guidetolerance="10"
     inkscape:pageopacity="0"
     inkscape:pageshadow="2"
     inkscape:window-width="2560"
     inkscape:window-height="1464"
     id="namedview20"
     showgrid="false"
     inkscape:zoom="2.8780488"
     inkscape:cx="-201.52542"
     inkscape:cy="41"
     inkscape:window-x="0"
     inkscape:window-y="0"
     inkscape:window-maximized="1"
     inkscape:current-layer="Layer_1" /><style
     type="text/css"
     id="style3">
	.st0{fill:none;stroke:url(#SVGID_1_);stroke-miterlimit:10;}
	.st1{fill-rule:evenodd;clip-rule:evenodd;fill:#FFFFFF;}
</style><switch
     id="switch5"><g
       i:extraneous="self"
       id="g7"><g
         id="g9"><linearGradient
           id="SVGID_1_"
           gradientUnits="userSpaceOnUse"
           x1="5.022039e-04"
           y1="43.56"
           x2="81.0005"
           y2="43.56"
           gradientTransform="matrix(0.9999 1.092937e-02 -1.092937e-02 0.9999 0.978 -3.0001)"><stop
             offset="0"
             style="stop-color:#59FF7F"
             id="stop12" /><stop
             offset="1"
             style="stop-color:#6BFBFF"
             id="stop14" /></linearGradient><ellipse
           transform="matrix(1.092937e-02 -0.9999 0.9999 1.092937e-02 -0.4457 81.5494)"
           class="st0"
           cx="41"
           cy="41"
           rx="40"
           ry="40"
           id="ellipse16" /><path
           class="st1"
           d="M29.5,20.9L46.7,21c0.3,0,0.6,0.3,0.6,0.6l0,3.8l0,2.2l0,7.1l-18.4-0.1l0-7.1l0-2.2l0-3.8     C28.9,21.1,29.2,20.9,29.5,20.9L29.5,20.9z M28.7,17.9c-1.5,0-2.8,1.2-2.8,2.7l-0.2,39.7l-1.5,0c-0.4,0-0.6,0.3-0.6,0.6l0,0     l0,0.8l0,1.9l28.6,0.2l0-1.9l0-0.8l0,0c0-0.4-0.3-0.6-0.6-0.6l-1.4,0l0.1-21.7l2.9,0l-0.1,20.4l0,0c0,2.5,2.3,4.8,4.9,4.9     c2.3,0.1,4-1,4.8-2.6L63,41.2c-1.6-3.3-4.2-4.6-7.5-4.6l0.1-10.7l-5.2-2.2l0-2.9c0-1.5-1.2-2.7-2.7-2.7L28.7,17.9L28.7,17.9z      M50.4,26.2l3,1.1l0,9.1l-3,0L50.4,26.2L50.4,26.2z M55.4,59.5l0.2-20.6c3.2,0.1,5.2,1.7,5.7,5l0,0.2l-0.1,15.2l0,0     c0,0,0,0.1,0,0.1l0,0.1l0,0c-0.2,1.1-1.3,2.1-2.9,2.1S55.6,60.6,55.4,59.5L55.4,59.5z"
           id="path18" /></g></g></switch></svg>