<?xml version="1.0" encoding="UTF-8" standalone="no"?>
<!-- Generator: Adobe Illustrator 21.0.0, SVG Export Plug-In . SVG Version: 6.00 Build 0)  -->

<svg
   xmlns:i="&amp;ns_ai;"
   xmlns:dc="http://purl.org/dc/elements/1.1/"
   xmlns:cc="http://creativecommons.org/ns#"
   xmlns:rdf="http://www.w3.org/1999/02/22-rdf-syntax-ns#"
   xmlns:svg="http://www.w3.org/2000/svg"
   xmlns="http://www.w3.org/2000/svg"
   xmlns:sodipodi="http://sodipodi.sourceforge.net/DTD/sodipodi-0.dtd"
   xmlns:inkscape="http://www.inkscape.org/namespaces/inkscape"
   version="1.1"
   id="Layer_1"
   x="0px"
   y="0px"
   viewBox="0 0 82 82"
   style="enable-background:new 0 0 82 82;"
   xml:space="preserve"
   inkscape:version="0.91 r13725"
   sodipodi:docname="HMI_Dashboard_Speed_Icon.svg"><metadata
     id="metadata35"><rdf:RDF><cc:Work
         rdf:about=""><dc:format>image/svg+xml</dc:format><dc:type
           rdf:resource="http://purl.org/dc/dcmitype/StillImage" /></cc:Work></rdf:RDF></metadata><defs
     id="defs33" /><sodipodi:namedview
     pagecolor="#ffffff"
     bordercolor="#666666"
     borderopacity="1"
     objecttolerance="10"
     gridtolerance="10"
     guidetolerance="10"
     inkscape:pageopacity="0"
     inkscape:pageshadow="2"
     inkscape:window-width="2560"
     inkscape:window-height="1464"
     id="namedview31"
     showgrid="false"
     inkscape:zoom="2.8780488"
     inkscape:cx="-132.90254"
     inkscape:cy="41"
     inkscape:window-x="0"
     inkscape:window-y="0"
     inkscape:window-maximized="1"
     inkscape:current-layer="Layer_1" /><style
     type="text/css"
     id="style3">
	.st0{fill:none;stroke:url(#SVGID_1_);stroke-miterlimit:10;}
	.st1{fill:#FFFFFF;}
</style><switch
     id="switch5"><g
       i:extraneous="self"
       id="g7"><g
         id="g9"><linearGradient
           id="SVGID_1_"
           gradientUnits="userSpaceOnUse"
           x1="-2.180208e-02"
           y1="40.8391"
           x2="80.9782"
           y2="40.8391"
           gradientTransform="matrix(0.9999 1.092937e-02 -1.092937e-02 0.9999 0.9706 -0.279)"><stop
             offset="0"
             style="stop-color:#59FF7F"
             id="stop12" /><stop
             offset="1"
             style="stop-color:#6BFBFF"
             id="stop14" /></linearGradient><ellipse
           transform="matrix(1.092937e-02 -0.9999 0.9999 1.092937e-02 -0.4457 81.5494)"
           class="st0"
           cx="41"
           cy="41"
           rx="40"
           ry="40"
           id="ellipse16" /><g
           id="g18"><path
             class="st1"
             d="M41.1,15.2c-15.5-0.1-28.2,12.4-28.3,28c0,6.9,2.5,13.6,7.1,18.8c0.3,0.4,0.8,0.6,1.3,0.6l39.3,0.2      c0.5,0,1-0.2,1.3-0.6c4.7-5.1,7.2-11.8,7.3-18.7C69.2,28,56.7,15.3,41.1,15.2z M60.6,61.1l-39.3-0.2c-4.2-4.7-6.7-10.9-6.6-17.6      c0.1-14.6,12-26.3,26.5-26.2c14.6,0.1,26.3,12,26.2,26.5C67.3,50.3,64.8,56.4,60.6,61.1z M43.5,40.9      C43.5,40.9,43.5,40.9,43.5,40.9c-2.1-2-8.9-6.2-11.7-8c-0.4-0.2-0.8-0.2-1.1,0.1c-0.3,0.3-0.3,0.8-0.1,1.1      c1.8,2.8,5.9,9.7,7.8,11.7c0,0,0.1,0.1,0.1,0.1c0.6,0.6,1.5,1,2.4,1c1.9,0,3.5-1.6,3.5-3.5C44.5,42.4,44.1,41.6,43.5,40.9z"
             id="path20" /><path
             class="st1"
             d="M54.7,56.5l-3.5-5.3c-0.3-0.5-0.9-0.8-1.5-0.8l-17.6-0.1c-0.6,0-1.1,0.3-1.5,0.8l-3.5,5.3      c-0.4,0.6-0.4,1.2-0.1,1.8s0.9,0.9,1.5,0.9c8.2,0,16.4,0.1,24.6,0.1c0.7,0,1.2-0.3,1.6-0.9C55.1,57.8,55.1,57.1,54.7,56.5z"
             id="path22" /><path
             class="st1"
             d="M52.9,22.5c-0.1-0.5-0.4-0.9-0.9-1.1c-3.4-1.7-7.1-2.6-10.8-2.6c-3.8,0-7.5,0.8-10.9,2.5      c-0.5,0.2-0.8,0.6-0.9,1.1c-0.1,0.5,0,1,0.3,1.4l3.1,4.4c0.5,0.7,1.4,0.9,2.1,0.6c2-0.9,4.1-1.3,6.3-1.3c2.2,0,4.3,0.5,6.3,1.3      c0.8,0.3,1.7,0.1,2.1-0.6l3.1-4.4C52.9,23.5,53,23,52.9,22.5z"
             id="path24" /><path
             class="st1"
             d="M58.1,25.7c-0.4-0.4-0.9-0.5-1.4-0.5c-0.5,0-1,0.3-1.3,0.7l-3.1,4.4c-0.5,0.7-0.4,1.6,0.2,2.2      c2.8,3,4.3,6.8,4.3,10.9c0,0.3,0,0.6,0,1c-0.1,0.8,0.5,1.6,1.3,1.8l5.2,1.4c0.5,0.1,1,0.1,1.5-0.2c0.4-0.3,0.7-0.7,0.8-1.3      c0.1-0.9,0.2-1.8,0.2-2.6C65.6,36.8,63,30.4,58.1,25.7z"
             id="path26" /><path
             class="st1"
             d="M29.7,30.2l-3-4.4c-0.3-0.4-0.7-0.7-1.3-0.7c-0.5-0.1-1,0.1-1.4,0.5c-4.9,4.6-7.6,11-7.7,17.7      c0,0.9,0,1.8,0.1,2.6c0.1,0.5,0.3,1,0.7,1.3s0.9,0.4,1.4,0.3l5.2-1.4c0.8-0.2,1.4-1,1.3-1.8c0-0.3,0-0.6,0-1      c0-4.1,1.6-7.9,4.4-10.9C30.1,31.8,30.2,30.9,29.7,30.2z"
             id="path28" /><g
             id="Layer_1_2_" /></g></g></g></switch></svg>