<?xml version="1.0" encoding="UTF-8" standalone="no"?>
<!-- Generator: Adobe Illustrator 21.0.0, SVG Export Plug-In . SVG Version: 6.00 Build 0)  -->

<svg
   xmlns:i="&amp;ns_ai;"
   xmlns:dc="http://purl.org/dc/elements/1.1/"
   xmlns:cc="http://creativecommons.org/ns#"
   xmlns:rdf="http://www.w3.org/1999/02/22-rdf-syntax-ns#"
   xmlns:svg="http://www.w3.org/2000/svg"
   xmlns="http://www.w3.org/2000/svg"
   xmlns:sodipodi="http://sodipodi.sourceforge.net/DTD/sodipodi-0.dtd"
   xmlns:inkscape="http://www.inkscape.org/namespaces/inkscape"
   version="1.1"
   id="Layer_1"
   x="0px"
   y="0px"
   viewBox="0 0 45 45"
   style="enable-background:new 0 0 45 45;"
   xml:space="preserve"
   inkscape:version="0.91 r13725"
   sodipodi:docname="AGL_MediaPlayer_Shuffle_Inactive.svg"><metadata
     id="metadata18"><rdf:RDF><cc:Work
         rdf:about=""><dc:format>image/svg+xml</dc:format><dc:type
           rdf:resource="http://purl.org/dc/dcmitype/StillImage" /></cc:Work></rdf:RDF></metadata><defs
     id="defs16" /><sodipodi:namedview
     pagecolor="#ffffff"
     bordercolor="#666666"
     borderopacity="1"
     objecttolerance="10"
     gridtolerance="10"
     guidetolerance="10"
     inkscape:pageopacity="0"
     inkscape:pageshadow="2"
     inkscape:window-width="2560"
     inkscape:window-height="1464"
     id="namedview14"
     showgrid="false"
     inkscape:zoom="5.2444444"
     inkscape:cx="-79.417373"
     inkscape:cy="22.5"
     inkscape:window-x="0"
     inkscape:window-y="0"
     inkscape:window-maximized="1"
     inkscape:current-layer="Layer_1" /><style
     type="text/css"
     id="style3">
	.st0{fill-rule:evenodd;clip-rule:evenodd;fill:#7A787D;}
</style><switch
     id="switch5"><g
       i:extraneous="self"
       id="g7"><g
         id="repeat_1_"><g
           id="g10"><path
             class="st0"
             d="M2.1,12h6.5l5.7,7.8l2.1-2.6c0,0-5.7-7.9-6.1-8.4H2.1c-0.9,0-1.6,0.9-1.6,1.8C0.5,11.4,1.2,12,2.1,12z       M34.7,12v4.4c0.5,0.5,2,0.7,2.5,0.2l6.9-5.2c0.5-0.5,0.5-1.3,0-1.7l-6.9-5.2c-0.5-0.5-2-0.8-2.5-0.3v4.6h-8.2L8.6,33.1H2.1      c-0.9,0-1.6,0.6-1.6,1.5c0,0.9,0.7,1.8,1.6,1.8h8.2L28.2,12H34.7z M37.2,28.5c-0.5-0.5-2-0.4-2.5,0.1v4.5h-6.5l-5.8-7.8      l-2.1,2.6l6.2,8.3h8.2v4.7c0.5,0.5,2,0.3,2.5-0.2l6.9-5.2c0.5-0.5,0.5-1.3,0-1.7L37.2,28.5z"
             id="path12" /></g></g></g></switch></svg>