<?xml version="1.0" encoding="UTF-8" standalone="no"?>
<!-- Generator: Adobe Illustrator 21.0.0, SVG Export Plug-In . SVG Version: 6.00 Build 0)  -->

<svg
   xmlns:i="&amp;ns_ai;"
   xmlns:dc="http://purl.org/dc/elements/1.1/"
   xmlns:cc="http://creativecommons.org/ns#"
   xmlns:rdf="http://www.w3.org/1999/02/22-rdf-syntax-ns#"
   xmlns:svg="http://www.w3.org/2000/svg"
   xmlns="http://www.w3.org/2000/svg"
   xmlns:sodipodi="http://sodipodi.sourceforge.net/DTD/sodipodi-0.dtd"
   xmlns:inkscape="http://www.inkscape.org/namespaces/inkscape"
   version="1.1"
   id="Layer_1"
   x="0px"
   y="0px"
   viewBox="0 0 80 80"
   style="enable-background:new 0 0 80 80;"
   xml:space="preserve"
   inkscape:version="0.91 r13725"
   sodipodi:docname="AGL_MediaPlayer_CD_Active.svg"><metadata
     id="metadata30"><rdf:RDF><cc:Work
         rdf:about=""><dc:format>image/svg+xml</dc:format><dc:type
           rdf:resource="http://purl.org/dc/dcmitype/StillImage" /></cc:Work></rdf:RDF></metadata><defs
     id="defs28" /><sodipodi:namedview
     pagecolor="#ffffff"
     bordercolor="#666666"
     borderopacity="1"
     objecttolerance="10"
     gridtolerance="10"
     guidetolerance="10"
     inkscape:pageopacity="0"
     inkscape:pageshadow="2"
     inkscape:window-width="2560"
     inkscape:window-height="1464"
     id="namedview26"
     showgrid="false"
     inkscape:zoom="2.95"
     inkscape:cx="-136.61017"
     inkscape:cy="40"
     inkscape:window-x="0"
     inkscape:window-y="0"
     inkscape:window-maximized="1"
     inkscape:current-layer="Layer_1" /><style
     type="text/css"
     id="style3">
	.st0{fill:url(#SVGID_1_);}
	.st1{fill:url(#SVGID_2_);}
</style><switch
     id="switch5"><g
       i:extraneous="self"
       id="g7"><g
         id="g9"><linearGradient
           id="SVGID_1_"
           gradientUnits="userSpaceOnUse"
           x1="14.1118"
           y1="86.0938"
           x2="72.1307"
           y2="-17.2081"><stop
             offset="0"
             style="stop-color:#59FF7F"
             id="stop12" /><stop
             offset="1"
             style="stop-color:#6BFBFF"
             id="stop14" /></linearGradient><path
           class="st0"
           d="M40,80c-0.1,0-0.1,0-0.2,0C17.7,79.9-0.1,61.8,0,39.8C0.1,17.8,18,0,40,0c0.1,0,0.1,0,0.2,0     C62.3,0.1,80.1,18.2,80,40.2l0,0C79.9,62.2,62,80,40,80z M40,1.4C18.8,1.4,1.5,18.6,1.4,39.8C1.3,61.1,18.5,78.5,39.8,78.6     c0.1,0,0.1,0,0.2,0c21.2,0,38.5-17.2,38.6-38.4C78.7,18.9,61.5,1.5,40.2,1.4C40.1,1.4,40.1,1.4,40,1.4z"
           id="path16" /><g
           id="compact-disc"><linearGradient
             id="SVGID_2_"
             gradientUnits="userSpaceOnUse"
             x1="14.1116"
             y1="86.0937"
             x2="72.1305"
             y2="-17.2082"><stop
               offset="0"
               style="stop-color:#59FF7F"
               id="stop20" /><stop
               offset="1"
               style="stop-color:#6BFBFF"
               id="stop22" /></linearGradient><path
             class="st1"
             d="M40,12.6c-15.1,0-27.4,12.3-27.4,27.4c0,15.1,12.3,27.4,27.4,27.4c15.1,0,27.4-12.3,27.4-27.4      C67.4,24.9,55.1,12.6,40,12.6z M40.1,35.1c2.8,0,5,2.2,5,5c0,2.8-2.2,5-5,5c-2.8,0-5-2.2-5-5C35.1,37.4,37.4,35.1,40.1,35.1z       M39.1,14.6v18.6c-1.2,0.2-2.2,0.6-3.1,1.3L22.8,21.3C27.1,17.4,32.9,14.9,39.1,14.6z M21.4,22.7l13.2,13.2      c-0.1,0.1-0.2,0.3-0.3,0.4l-16.3-9C19,25.7,20.1,24.2,21.4,22.7z M40,65.4C26,65.4,14.6,54,14.6,40c0-3.9,0.9-7.6,2.4-10.8      l16.4,9c-0.2,0.6-0.3,1.3-0.3,2c0,3.9,3.1,7,7,7c3.9,0,7-3.1,7-7c0-3.5-2.6-6.4-6-6.9V14.6C54.6,15.2,65.4,26.4,65.4,40      C65.4,54,54,65.4,40,65.4z"
             id="path24" /></g></g></g></switch></svg>