<?xml version="1.0" encoding="UTF-8" standalone="no"?>
<!-- Generator: Adobe Illustrator 21.0.0, SVG Export Plug-In . SVG Version: 6.00 Build 0)  -->

<svg
   xmlns:i="&amp;ns_ai;"
   xmlns:dc="http://purl.org/dc/elements/1.1/"
   xmlns:cc="http://creativecommons.org/ns#"
   xmlns:rdf="http://www.w3.org/1999/02/22-rdf-syntax-ns#"
   xmlns:svg="http://www.w3.org/2000/svg"
   xmlns="http://www.w3.org/2000/svg"
   xmlns:sodipodi="http://sodipodi.sourceforge.net/DTD/sodipodi-0.dtd"
   xmlns:inkscape="http://www.inkscape.org/namespaces/inkscape"
   version="1.1"
   id="Layer_1"
   x="0px"
   y="0px"
   viewBox="0 0 80 80"
   style="enable-background:new 0 0 80 80;"
   xml:space="preserve"
   inkscape:version="0.91 r13725"
   sodipodi:docname="AGL_MediaPlayer_Radio_Inactive.svg"><metadata
     id="metadata67"><rdf:RDF><cc:Work
         rdf:about=""><dc:format>image/svg+xml</dc:format><dc:type
           rdf:resource="http://purl.org/dc/dcmitype/StillImage" /></cc:Work></rdf:RDF></metadata><defs
     id="defs65" /><sodipodi:namedview
     pagecolor="#ffffff"
     bordercolor="#666666"
     borderopacity="1"
     objecttolerance="10"
     gridtolerance="10"
     guidetolerance="10"
     inkscape:pageopacity="0"
     inkscape:pageshadow="2"
     inkscape:window-width="2560"
     inkscape:window-height="1464"
     id="namedview63"
     showgrid="false"
     inkscape:zoom="2.95"
     inkscape:cx="-107.11864"
     inkscape:cy="40"
     inkscape:window-x="0"
     inkscape:window-y="0"
     inkscape:window-maximized="1"
     inkscape:current-layer="Layer_1" /><style
     type="text/css"
     id="style3">
	.st0{fill:#7A787D;}
</style><switch
     id="switch5"><g
       i:extraneous="self"
       id="g7"><g
         id="g9"><path
           class="st0"
           d="M40,80c-0.1,0-0.1,0-0.2,0C17.7,79.9-0.1,61.8,0,39.8C0.1,17.8,18,0,40,0c0.1,0,0.1,0,0.2,0     C62.3,0.1,80.1,18.2,80,40.2l0,0C79.9,62.2,62,80,40,80z M40,1.4C18.8,1.4,1.5,18.6,1.4,39.8C1.3,61.1,18.5,78.5,39.8,78.6     c0.1,0,0.1,0,0.2,0c21.2,0,38.5-17.2,38.6-38.4C78.7,18.9,61.5,1.5,40.2,1.4C40.1,1.4,40.1,1.4,40,1.4z"
           id="path11" /><g
           id="g13"><g
             id="g15"><path
               class="st0"
               d="M43.8,51.7l-0.5-1.6c3.7-1.2,6.1-4.4,6.1-8V23.5c0-4.7-4.2-8.5-9.3-8.5s-9.3,3.8-9.3,8.5v18.6       c0,3.5,2.4,6.7,6.1,8l-0.5,1.6c-4.3-1.5-7.2-5.3-7.2-9.6V23.5c0-5.6,4.9-10.2,11-10.2s11,4.6,11,10.2v18.6       C51,46.4,48.1,50.3,43.8,51.7z"
               id="path17" /></g><g
             id="g19"><path
               class="st0"
               d="M40,56.6c-8.4,0-15.3-5.6-15.3-12.5h1.7c0,6,6.1,10.9,13.6,10.9S53.6,50,53.6,44h1.7       C55.3,50.9,48.4,56.6,40,56.6z"
               id="path21" /></g><g
             id="g23"><rect
               x="39.2"
               y="59.2"
               class="st0"
               width="1.7"
               height="3.7"
               id="rect25" /></g><g
             id="g27"><rect
               x="29.9"
               y="27.8"
               class="st0"
               width="6.6"
               height="1.7"
               id="rect29" /></g><g
             id="g31"><rect
               x="29.9"
               y="22.7"
               class="st0"
               width="6.6"
               height="1.7"
               id="rect33" /></g><g
             id="g35"><rect
               x="29.9"
               y="32.9"
               class="st0"
               width="6.6"
               height="1.7"
               id="rect37" /></g><g
             id="g39"><rect
               x="29.9"
               y="38"
               class="st0"
               width="6.6"
               height="1.7"
               id="rect41" /></g><g
             id="g43"><rect
               x="43.5"
               y="27.8"
               class="st0"
               width="6.6"
               height="1.7"
               id="rect45" /></g><g
             id="g47"><rect
               x="43.5"
               y="22.7"
               class="st0"
               width="6.6"
               height="1.7"
               id="rect49" /></g><g
             id="g51"><rect
               x="43.5"
               y="32.9"
               class="st0"
               width="6.6"
               height="1.7"
               id="rect53" /></g><g
             id="g55"><rect
               x="43.5"
               y="38"
               class="st0"
               width="6.6"
               height="1.7"
               id="rect57" /></g><g
             id="g59"><path
               class="st0"
               d="M50.2,66.7h-1.7c0-2.1-1.1-2.5-4.1-2.5h-8.8c-3,0-4.1,0.4-4.1,2.5h-1.7c0-4.2,3.6-4.2,5.8-4.2h8.8       C46.6,62.5,50.2,62.5,50.2,66.7z"
               id="path61" /></g></g></g></g></switch></svg>