<?xml version="1.0" encoding="UTF-8" standalone="no"?>
<!-- Generator: Adobe Illustrator 21.0.0, SVG Export Plug-In . SVG Version: 6.00 Build 0)  -->

<svg
   xmlns:i="&amp;ns_ai;"
   xmlns:dc="http://purl.org/dc/elements/1.1/"
   xmlns:cc="http://creativecommons.org/ns#"
   xmlns:rdf="http://www.w3.org/1999/02/22-rdf-syntax-ns#"
   xmlns:svg="http://www.w3.org/2000/svg"
   xmlns="http://www.w3.org/2000/svg"
   xmlns:sodipodi="http://sodipodi.sourceforge.net/DTD/sodipodi-0.dtd"
   xmlns:inkscape="http://www.inkscape.org/namespaces/inkscape"
   version="1.1"
   id="Layer_1"
   x="0px"
   y="0px"
   viewBox="0 0 80 80"
   style="enable-background:new 0 0 80 80;"
   xml:space="preserve"
   inkscape:version="0.91 r13725"
   sodipodi:docname="AGL_MediaPlayer_Playlist_Active.svg"><metadata
     id="metadata70"><rdf:RDF><cc:Work
         rdf:about=""><dc:format>image/svg+xml</dc:format><dc:type
           rdf:resource="http://purl.org/dc/dcmitype/StillImage" /></cc:Work></rdf:RDF></metadata><defs
     id="defs68" /><sodipodi:namedview
     pagecolor="#ffffff"
     bordercolor="#666666"
     borderopacity="1"
     objecttolerance="10"
     gridtolerance="10"
     guidetolerance="10"
     inkscape:pageopacity="0"
     inkscape:pageshadow="2"
     inkscape:window-width="2560"
     inkscape:window-height="1464"
     id="namedview66"
     showgrid="false"
     inkscape:zoom="2.95"
     inkscape:cx="-131.86441"
     inkscape:cy="40"
     inkscape:window-x="0"
     inkscape:window-y="0"
     inkscape:window-maximized="1"
     inkscape:current-layer="Layer_1" /><style
     type="text/css"
     id="style3">
	.st0{fill:url(#SVGID_1_);}
	.st1{fill:url(#SVGID_2_);}
	.st2{fill:url(#SVGID_3_);}
	.st3{fill:url(#SVGID_4_);}
	.st4{fill:url(#SVGID_5_);}
	.st5{fill:url(#SVGID_6_);}
</style><switch
     id="switch5"><g
       i:extraneous="self"
       id="g7"><g
         id="g9"><g
           id="g11"><linearGradient
             id="SVGID_1_"
             gradientUnits="userSpaceOnUse"
             x1="-9.094947e-13"
             y1="40"
             x2="80"
             y2="40"><stop
               offset="0"
               style="stop-color:#59FF7F"
               id="stop14" /><stop
               offset="1"
               style="stop-color:#6BFBFF"
               id="stop16" /></linearGradient><path
             class="st0"
             d="M40,80c-0.1,0-0.1,0-0.2,0C17.7,79.9-0.1,61.8,0,39.8c0.1-10.7,4.3-20.7,11.9-28.2C19.4,4.1,29.4,0,40,0      c0.1,0,0.1,0,0.2,0C62.3,0.1,80.1,18.2,80,40.2l0,0C79.9,62.2,62,80,40,80z M40,1.1C18.6,1.1,1.2,18.4,1.1,39.8      c-0.1,21.5,17.3,39,38.7,39.2c21.5,0.1,39-17.3,39.2-38.7c0.1-21.5-17.3-39-38.7-39.2C40.1,1.1,40.1,1.1,40,1.1z"
             id="path18" /></g><g
           id="music-list_1_"><g
             id="g21"><linearGradient
               id="SVGID_2_"
               gradientUnits="userSpaceOnUse"
               x1="34.0503"
               y1="41.6001"
               x2="66.3176"
               y2="41.6001"><stop
                 offset="0"
                 style="stop-color:#59FF7F"
                 id="stop24" /><stop
                 offset="1"
                 style="stop-color:#6BFBFF"
                 id="stop26" /></linearGradient><path
               class="st1"
               d="M66.1,36.6C64.9,23.8,50.4,21.1,50.3,21l-1-0.2v31.5l-0.1,0.4c-1.2-0.7-2.8-1.1-4.7-1.1       c-1,0-2,0.1-3.1,0.4c-4.6,1-7.9,4.1-7.3,6.9c0.5,2.1,3.1,3.5,6.5,3.5c1,0,2-0.1,3.1-0.3c4.5-1,7.7-3.9,7.3-6.6h0V31.1       c1.9-0.2,7.7-0.2,13.5,6.2l1.8,2L66.1,36.6z M48.1,57.9c-1.1,1.1-2.9,1.9-4.8,2.4c-0.9,0.2-1.8,0.3-2.7,0.3       c-2.5,0-4.5-0.9-4.8-2.1c-0.2-0.7,0.3-1.6,1.2-2.4c1.1-1.1,2.9-1.9,4.8-2.4c0.9-0.2,1.8-0.3,2.7-0.3c2.5,0,4.5,0.9,4.8,2.1       C49.4,56.2,49,57.1,48.1,57.9z M52.1,29.3c-0.4,0-0.8,0-1.1,0V23c2.8,0.8,10.6,3.6,12.8,11C59.1,30,54.6,29.3,52.1,29.3z"
               id="path28" /></g><g
             id="g30"><linearGradient
               id="SVGID_3_"
               gradientUnits="userSpaceOnUse"
               x1="16.8648"
               y1="26.6805"
               x2="44.4397"
               y2="26.6805"><stop
                 offset="0"
                 style="stop-color:#59FF7F"
                 id="stop33" /><stop
                 offset="1"
                 style="stop-color:#6BFBFF"
                 id="stop35" /></linearGradient><rect
               x="16.9"
               y="25.8"
               class="st2"
               width="27.6"
               height="1.8"
               id="rect37" /></g><g
             id="g39"><linearGradient
               id="SVGID_4_"
               gradientUnits="userSpaceOnUse"
               x1="16.8648"
               y1="32.8962"
               x2="44.4397"
               y2="32.8962"><stop
                 offset="0"
                 style="stop-color:#59FF7F"
                 id="stop42" /><stop
                 offset="1"
                 style="stop-color:#6BFBFF"
                 id="stop44" /></linearGradient><rect
               x="16.9"
               y="32"
               class="st3"
               width="27.6"
               height="1.8"
               id="rect46" /></g><g
             id="g48"><linearGradient
               id="SVGID_5_"
               gradientUnits="userSpaceOnUse"
               x1="16.8648"
               y1="39.1119"
               x2="44.4397"
               y2="39.1119"><stop
                 offset="0"
                 style="stop-color:#59FF7F"
                 id="stop51" /><stop
                 offset="1"
                 style="stop-color:#6BFBFF"
                 id="stop53" /></linearGradient><rect
               x="16.9"
               y="38.2"
               class="st4"
               width="27.6"
               height="1.8"
               id="rect55" /></g><g
             id="g57"><linearGradient
               id="SVGID_6_"
               gradientUnits="userSpaceOnUse"
               x1="16.8648"
               y1="45.3276"
               x2="44.4397"
               y2="45.3276"><stop
                 offset="0"
                 style="stop-color:#59FF7F"
                 id="stop60" /><stop
                 offset="1"
                 style="stop-color:#6BFBFF"
                 id="stop62" /></linearGradient><rect
               x="16.9"
               y="44.4"
               class="st5"
               width="27.6"
               height="1.8"
               id="rect64" /></g></g></g></g></switch></svg>