<?xml version="1.0" encoding="UTF-8" standalone="no"?>
<!-- Generator: Adobe Illustrator 21.0.0, SVG Export Plug-In . SVG Version: 6.00 Build 0)  -->

<svg
   xmlns:i="&amp;ns_ai;"
   xmlns:dc="http://purl.org/dc/elements/1.1/"
   xmlns:cc="http://creativecommons.org/ns#"
   xmlns:rdf="http://www.w3.org/1999/02/22-rdf-syntax-ns#"
   xmlns:svg="http://www.w3.org/2000/svg"
   xmlns="http://www.w3.org/2000/svg"
   xmlns:sodipodi="http://sodipodi.sourceforge.net/DTD/sodipodi-0.dtd"
   xmlns:inkscape="http://www.inkscape.org/namespaces/inkscape"
   version="1.1"
   id="Layer_1"
   x="0px"
   y="0px"
   viewBox="0 0 80 80"
   style="enable-background:new 0 0 80 80;"
   xml:space="preserve"
   inkscape:version="0.91 r13725"
   sodipodi:docname="AGL_MediaPlayer_Bluetooth_Active.svg"><metadata
     id="metadata30"><rdf:RDF><cc:Work
         rdf:about=""><dc:format>image/svg+xml</dc:format><dc:type
           rdf:resource="http://purl.org/dc/dcmitype/StillImage" /></cc:Work></rdf:RDF></metadata><defs
     id="defs28" /><sodipodi:namedview
     pagecolor="#ffffff"
     bordercolor="#666666"
     borderopacity="1"
     objecttolerance="10"
     gridtolerance="10"
     guidetolerance="10"
     inkscape:pageopacity="0"
     inkscape:pageshadow="2"
     inkscape:window-width="2560"
     inkscape:window-height="1464"
     id="namedview26"
     showgrid="false"
     inkscape:zoom="2.95"
     inkscape:cx="-96.101695"
     inkscape:cy="40"
     inkscape:window-x="0"
     inkscape:window-y="0"
     inkscape:window-maximized="1"
     inkscape:current-layer="Layer_1" /><style
     type="text/css"
     id="style3">
	.st0{fill:url(#SVGID_1_);}
	.st1{fill:url(#SVGID_2_);}
</style><switch
     id="switch5"><g
       i:extraneous="self"
       id="g7"><g
         id="g9"><linearGradient
           id="SVGID_1_"
           gradientUnits="userSpaceOnUse"
           x1="21.8783"
           y1="78.2696"
           x2="59.85"
           y2="-1.9191"><stop
             offset="0"
             style="stop-color:#59FF7F"
             id="stop12" /><stop
             offset="1"
             style="stop-color:#6BFBFF"
             id="stop14" /></linearGradient><path
           class="st0"
           d="M40,80c-0.1,0-0.1,0-0.2,0C17.7,79.9-0.1,61.8,0,39.8C0.1,17.8,18,0,40,0c0.1,0,0.1,0,0.2,0     C62.3,0.1,80.1,18.2,80,40.2l0,0C79.9,62.2,62,80,40,80z M40,1.4C18.8,1.4,1.5,18.6,1.4,39.8C1.3,61.1,18.5,78.5,39.8,78.6     c0.1,0,0.1,0,0.2,0c21.2,0,38.5-17.2,38.6-38.4C78.7,18.9,61.5,1.5,40.2,1.4C40.1,1.4,40.1,1.4,40,1.4z"
           id="path16" /><g
           id="Bluetooth_Icon"><linearGradient
             id="SVGID_2_"
             gradientUnits="userSpaceOnUse"
             x1="21.173"
             y1="77.9356"
             x2="59.1446"
             y2="-2.2531"><stop
               offset="0"
               style="stop-color:#59FF7F"
               id="stop20" /><stop
               offset="1"
               style="stop-color:#6BFBFF"
               id="stop22" /></linearGradient><path
             class="st1"
             d="M37.6,68.1V42.9L24.5,55.2l-1-1.1l14.1-13.2v-0.1L22.2,30.2l0.9-1.2l14.5,10V12.6l17.7,13.7L40,40.6      l15.4,10.6L37.6,68.1z M39.1,41.7v22.9l14-13.2L39.1,41.7z M39.1,15.7v23.7l13.9-13L39.1,15.7z"
             id="path24" /></g></g></g></switch></svg>