<?xml version="1.0" encoding="UTF-8" standalone="no"?>
<!-- Generator: Adobe Illustrator 21.0.0, SVG Export Plug-In . SVG Version: 6.00 Build 0)  -->

<svg
   xmlns:i="&amp;ns_ai;"
   xmlns:dc="http://purl.org/dc/elements/1.1/"
   xmlns:cc="http://creativecommons.org/ns#"
   xmlns:rdf="http://www.w3.org/1999/02/22-rdf-syntax-ns#"
   xmlns:svg="http://www.w3.org/2000/svg"
   xmlns="http://www.w3.org/2000/svg"
   xmlns:sodipodi="http://sodipodi.sourceforge.net/DTD/sodipodi-0.dtd"
   xmlns:inkscape="http://www.inkscape.org/namespaces/inkscape"
   version="1.1"
   id="Layer_1"
   x="0px"
   y="0px"
   viewBox="0 0 50 50"
   style="enable-background:new 0 0 50 50;"
   xml:space="preserve"
   inkscape:version="0.91 r13725"
   sodipodi:docname="AGL_MediaPlayer_Loop_Inactive.svg"><metadata
     id="metadata19"><rdf:RDF><cc:Work
         rdf:about=""><dc:format>image/svg+xml</dc:format><dc:type
           rdf:resource="http://purl.org/dc/dcmitype/StillImage" /></cc:Work></rdf:RDF></metadata><defs
     id="defs17" /><sodipodi:namedview
     pagecolor="#ffffff"
     bordercolor="#666666"
     borderopacity="1"
     objecttolerance="10"
     gridtolerance="10"
     guidetolerance="10"
     inkscape:pageopacity="0"
     inkscape:pageshadow="2"
     inkscape:window-width="2560"
     inkscape:window-height="1464"
     id="namedview15"
     showgrid="false"
     inkscape:zoom="4.72"
     inkscape:cx="-74.682203"
     inkscape:cy="25"
     inkscape:window-x="0"
     inkscape:window-y="0"
     inkscape:window-maximized="1"
     inkscape:current-layer="Layer_1" /><style
     type="text/css"
     id="style3">
	.st0{fill:#7A787D;}
</style><switch
     id="switch5"><g
       i:extraneous="self"
       id="g7"><g
         id="g9"><path
           class="st0"
           d="M31.5,15.3v4.4c0,0.4,0.2,0.7,0.6,0.9c0.1,0.1,0.3,0.1,0.5,0.1c0.2,0,0.4-0.1,0.6-0.2l9.4-6.8     c0.3-0.2,0.4-0.5,0.4-0.8c0-0.3-0.2-0.6-0.4-0.8l-9.4-6.8C32.8,5,32.4,5,32,5.2c-0.3,0.2-0.6,0.5-0.6,0.9v4.4H10.9     C5.1,10.5,0.3,15.2,0.3,21V29c0,1.3,1.1,2.4,2.4,2.4c1.3,0,2.4-1.1,2.4-2.4V21c0-3.2,2.6-5.8,5.8-5.8H31.5z"
           id="path11" /><path
           class="st0"
           d="M47.3,18.7c-1.3,0-2.4,1.1-2.4,2.4V29c0,3.2-2.6,5.8-5.8,5.8H18.4v-4.4c0-0.4-0.2-0.7-0.6-0.9     c-0.3-0.2-0.8-0.1-1.1,0.1l-9.4,6.8C7.2,36.5,7,36.8,7,37.1c0,0.3,0.2,0.6,0.4,0.8l9.4,6.8c0.2,0.1,0.4,0.2,0.6,0.2     c0.2,0,0.3,0,0.5-0.1c0.3-0.2,0.6-0.5,0.6-0.9v-4.4h20.7c5.8,0,10.5-4.7,10.5-10.5V21C49.7,19.7,48.6,18.7,47.3,18.7z"
           id="path13" /></g></g></switch></svg>