<?xml version="1.0" encoding="UTF-8" standalone="no"?>
<!-- Generator: Adobe Illustrator 21.0.0, SVG Export Plug-In . SVG Version: 6.00 Build 0)  -->

<svg
   xmlns:i="&amp;ns_ai;"
   xmlns:dc="http://purl.org/dc/elements/1.1/"
   xmlns:cc="http://creativecommons.org/ns#"
   xmlns:rdf="http://www.w3.org/1999/02/22-rdf-syntax-ns#"
   xmlns:svg="http://www.w3.org/2000/svg"
   xmlns="http://www.w3.org/2000/svg"
   xmlns:sodipodi="http://sodipodi.sourceforge.net/DTD/sodipodi-0.dtd"
   xmlns:inkscape="http://www.inkscape.org/namespaces/inkscape"
   version="1.1"
   id="Layer_1"
   x="0px"
   y="0px"
   viewBox="0 0 130 130"
   style="enable-background:new 0 0 130 130;"
   xml:space="preserve"
   inkscape:version="0.91 r13725"
   sodipodi:docname="Albums_Inactive.svg"><metadata
     id="metadata46"><rdf:RDF><cc:Work
         rdf:about=""><dc:format>image/svg+xml</dc:format><dc:type
           rdf:resource="http://purl.org/dc/dcmitype/StillImage" /></cc:Work></rdf:RDF></metadata><defs
     id="defs44" /><sodipodi:namedview
     pagecolor="#ffffff"
     bordercolor="#666666"
     borderopacity="1"
     objecttolerance="10"
     gridtolerance="10"
     guidetolerance="10"
     inkscape:pageopacity="0"
     inkscape:pageshadow="2"
     inkscape:window-width="2560"
     inkscape:window-height="1464"
     id="namedview42"
     showgrid="false"
     inkscape:zoom="1.8153846"
     inkscape:cx="-236.58898"
     inkscape:cy="65"
     inkscape:window-x="0"
     inkscape:window-y="0"
     inkscape:window-maximized="1"
     inkscape:current-layer="Layer_1" /><style
     type="text/css"
     id="style3">
	.st0{fill:#FFFFFF;}
	.st1{font-family:'Roboto-Regular';}
	.st2{font-size:12.9383px;}
	.st3{letter-spacing:3;}
	.st4{fill:#69676C;}
</style><switch
     id="switch5"><g
       i:extraneous="self"
       id="g7"><g
         id="g9"><g
           id="g11"><text
             transform="matrix(1 5.460000e-03 -5.460000e-03 1 28.9815 114.5445)"
             class="st0 st1 st2 st3"
             id="text13">ALBUMS</text>
</g><g
           id="albums_1_"><g
             id="g16"><g
               id="g18"><g
                 id="g20"><path
                   class="st4"
                   d="M47.9,77.6c-2.5,0-4.6-1-5.7-2.9c-1.1-1.9-2.1-5.6,3.7-8.9c1.9-1.1,6.6-1.5,8-1.5l0,1.4         c-1.8,0-6,0.5-7.4,1.3c-3.6,2.1-4.7,4.5-3.2,7c1.5,2.6,5.6,2.9,9.2,0.9c2.6-1.5,4.1-4.1,4.1-6.9l0-0.3v-27l27.7-5.5l0,27.5         c0,2.6-1.3,6.3-4.8,8.4c-4.3,2.5-9.3,1.9-11.1-1.4c-1.1-1.9-2.1-5.6,3.7-8.9c1.7-1,5.5-1.5,7.2-1.5l0,1.4         c-1.6,0-5.2,0.5-6.6,1.3c-2.5,1.4-5,3.8-3.2,7c1.5,2.6,5.6,2.9,9.2,0.9c3-1.8,4.1-4.9,4.1-7.2l0-0.3V36.9l-24.9,4.9v25.8         l0,0.3c0,3.4-1.8,6.4-4.8,8.2C51.5,77.1,49.6,77.6,47.9,77.6z"
                   id="path22" /></g></g><g
               id="g24"><g
                 id="g26"><rect
                   x="63.3"
                   y="48.3"
                   transform="matrix(0.9733 -0.2295 0.2295 0.9733 -9.3345 17.6977)"
                   class="st4"
                   width="16.1"
                   height="1.4"
                   id="rect28" /></g></g></g><g
             id="g30"><path
               class="st4"
               d="M97.3,87.9H33V23.5h64.4V87.9z M35,85.9h60.4V25.5H35V85.9z"
               id="path32" /></g><g
             id="g34"><rect
               x="36.4"
               y="17.3"
               class="st4"
               width="57.5"
               height="2"
               id="rect36" /></g><g
             id="g38"><rect
               x="41.9"
               y="11.6"
               class="st4"
               width="46.6"
               height="2"
               id="rect40" /></g></g></g></g></switch></svg>