<?xml version="1.0" encoding="UTF-8" standalone="no"?>
<!-- Generator: Adobe Illustrator 21.0.0, SVG Export Plug-In . SVG Version: 6.00 Build 0)  -->

<svg
   xmlns:i="&amp;ns_ai;"
   xmlns:dc="http://purl.org/dc/elements/1.1/"
   xmlns:cc="http://creativecommons.org/ns#"
   xmlns:rdf="http://www.w3.org/1999/02/22-rdf-syntax-ns#"
   xmlns:svg="http://www.w3.org/2000/svg"
   xmlns="http://www.w3.org/2000/svg"
   xmlns:sodipodi="http://sodipodi.sourceforge.net/DTD/sodipodi-0.dtd"
   xmlns:inkscape="http://www.inkscape.org/namespaces/inkscape"
   version="1.1"
   id="Layer_1"
   x="0px"
   y="0px"
   viewBox="0 0 130 130"
   style="enable-background:new 0 0 130 130;"
   xml:space="preserve"
   inkscape:version="0.91 r13725"
   sodipodi:docname="Albums_Active.svg"><metadata
     id="metadata71"><rdf:RDF><cc:Work
         rdf:about=""><dc:format>image/svg+xml</dc:format><dc:type
           rdf:resource="http://purl.org/dc/dcmitype/StillImage" /></cc:Work></rdf:RDF></metadata><defs
     id="defs69" /><sodipodi:namedview
     pagecolor="#ffffff"
     bordercolor="#666666"
     borderopacity="1"
     objecttolerance="10"
     gridtolerance="10"
     guidetolerance="10"
     inkscape:pageopacity="0"
     inkscape:pageshadow="2"
     inkscape:window-width="2560"
     inkscape:window-height="1464"
     id="namedview67"
     showgrid="false"
     inkscape:zoom="1.8153846"
     inkscape:cx="-269.08898"
     inkscape:cy="65"
     inkscape:window-x="0"
     inkscape:window-y="0"
     inkscape:window-maximized="1"
     inkscape:current-layer="Layer_1" /><style
     type="text/css"
     id="style3">
	.st0{fill:#FFFFFF;}
	.st1{font-family:'Roboto-Regular';}
	.st2{font-size:12.9383px;}
	.st3{letter-spacing:3;}
	.st4{fill:url(#SVGID_1_);}
	.st5{fill:url(#SVGID_2_);}
	.st6{fill:url(#SVGID_3_);}
	.st7{fill:url(#SVGID_4_);}
	.st8{fill:url(#SVGID_5_);}
</style><switch
     id="switch5"><g
       i:extraneous="self"
       id="g7"><g
         id="g9"><g
           id="g11"><text
             transform="matrix(1 5.460000e-03 -5.460000e-03 1 28.9815 114.5445)"
             class="st0 st1 st2 st3"
             id="text13">ALBUMS</text>
</g><g
           id="albums_1_"><g
             id="g16"><g
               id="g18"><g
                 id="g20"><linearGradient
                   id="SVGID_1_"
                   gradientUnits="userSpaceOnUse"
                   x1="40.2005"
                   y1="91.6848"
                   x2="105.575"
                   y2="9.2761"><stop
                     offset="0"
                     style="stop-color:#8BC53F"
                     id="stop23" /><stop
                     offset="1"
                     style="stop-color:#0DF9FF"
                     id="stop25" /></linearGradient><path
                   class="st4"
                   d="M47.9,77.6c-2.5,0-4.6-1-5.7-2.9c-1.1-1.9-2.1-5.6,3.7-8.9c1.9-1.1,6.6-1.5,8-1.5l0,1.4         c-1.8,0-6,0.5-7.4,1.3c-3.6,2.1-4.7,4.5-3.2,7c1.5,2.6,5.6,2.9,9.2,0.9c2.6-1.5,4.1-4.1,4.1-6.9l0-0.3v-27l27.7-5.5l0,27.5         c0,2.6-1.3,6.3-4.8,8.4c-4.3,2.5-9.3,1.9-11.1-1.4c-1.1-1.9-2.1-5.6,3.7-8.9c1.7-1,5.5-1.5,7.2-1.5l0,1.4         c-1.6,0-5.2,0.5-6.6,1.3c-2.5,1.4-5,3.8-3.2,7c1.5,2.6,5.6,2.9,9.2,0.9c3-1.8,4.1-4.9,4.1-7.2l0-0.3V36.9l-24.9,4.9v25.8         l0,0.3c0,3.4-1.8,6.4-4.8,8.2C51.5,77.1,49.6,77.6,47.9,77.6z"
                   id="path27" /></g></g><g
               id="g29"><g
                 id="g31"><linearGradient
                   id="SVGID_2_"
                   gradientUnits="userSpaceOnUse"
                   x1="38.5588"
                   y1="90.3825"
                   x2="103.9333"
                   y2="7.9737"><stop
                     offset="0"
                     style="stop-color:#8BC53F"
                     id="stop34" /><stop
                     offset="1"
                     style="stop-color:#0DF9FF"
                     id="stop36" /></linearGradient><polygon
                   class="st5"
                   points="63.7,51.5 63.4,50.2 79.1,46.4 79.4,47.8        "
                   id="polygon38" /></g></g></g><g
             id="g40"><linearGradient
               id="SVGID_3_"
               gradientUnits="userSpaceOnUse"
               x1="38.0152"
               y1="89.9512"
               x2="103.3897"
               y2="7.5425"><stop
                 offset="0"
                 style="stop-color:#8BC53F"
                 id="stop43" /><stop
                 offset="1"
                 style="stop-color:#0DF9FF"
                 id="stop45" /></linearGradient><path
               class="st6"
               d="M97.3,87.9H33V23.5h64.4V87.9z M35,85.9h60.4V25.5H35V85.9z"
               id="path47" /></g><g
             id="g49"><linearGradient
               id="SVGID_4_"
               gradientUnits="userSpaceOnUse"
               x1="19.809"
               y1="75.5084"
               x2="85.1836"
               y2="-6.9004"><stop
                 offset="0"
                 style="stop-color:#8BC53F"
                 id="stop52" /><stop
                 offset="1"
                 style="stop-color:#0DF9FF"
                 id="stop54" /></linearGradient><rect
               x="36.4"
               y="17.3"
               class="st7"
               width="57.5"
               height="2"
               id="rect56" /></g><g
             id="g58"><linearGradient
               id="SVGID_5_"
               gradientUnits="userSpaceOnUse"
               x1="16.994"
               y1="73.2752"
               x2="82.3685"
               y2="-9.1335"><stop
                 offset="0"
                 style="stop-color:#8BC53F"
                 id="stop61" /><stop
                 offset="1"
                 style="stop-color:#0DF9FF"
                 id="stop63" /></linearGradient><rect
               x="41.9"
               y="11.6"
               class="st8"
               width="46.6"
               height="2"
               id="rect65" /></g></g></g></g></switch></svg>