<?xml version="1.0" encoding="UTF-8" standalone="no"?>
<!-- Generator: Adobe Illustrator 21.0.0, SVG Export Plug-In . SVG Version: 6.00 Build 0)  -->

<svg
   xmlns:i="&amp;ns_ai;"
   xmlns:dc="http://purl.org/dc/elements/1.1/"
   xmlns:cc="http://creativecommons.org/ns#"
   xmlns:rdf="http://www.w3.org/1999/02/22-rdf-syntax-ns#"
   xmlns:svg="http://www.w3.org/2000/svg"
   xmlns="http://www.w3.org/2000/svg"
   xmlns:sodipodi="http://sodipodi.sourceforge.net/DTD/sodipodi-0.dtd"
   xmlns:inkscape="http://www.inkscape.org/namespaces/inkscape"
   version="1.1"
   id="Layer_1"
   x="0px"
   y="0px"
   viewBox="0 0 73 73"
   style="enable-background:new 0 0 73 73;"
   xml:space="preserve"
   inkscape:version="0.91 r13725"
   sodipodi:docname="Popup_PauseIcon.svg"><metadata
     id="metadata22"><rdf:RDF><cc:Work
         rdf:about=""><dc:format>image/svg+xml</dc:format><dc:type
           rdf:resource="http://purl.org/dc/dcmitype/StillImage" /></cc:Work></rdf:RDF></metadata><defs
     id="defs20" /><sodipodi:namedview
     pagecolor="#ffffff"
     bordercolor="#666666"
     borderopacity="1"
     objecttolerance="10"
     gridtolerance="10"
     guidetolerance="10"
     inkscape:pageopacity="0"
     inkscape:pageshadow="2"
     inkscape:window-width="2560"
     inkscape:window-height="1464"
     id="namedview18"
     showgrid="false"
     inkscape:zoom="3.2328767"
     inkscape:cx="-93.724576"
     inkscape:cy="36.5"
     inkscape:window-x="0"
     inkscape:window-y="0"
     inkscape:window-maximized="1"
     inkscape:current-layer="Layer_1" /><style
     type="text/css"
     id="style3">
	.st0{fill:none;stroke:#000000;stroke-miterlimit:10;}
	.st1{fill-rule:evenodd;clip-rule:evenodd;}
</style><switch
     id="switch5"><g
       i:extraneous="self"
       id="g7"><g
         id="g9"><ellipse
           transform="matrix(5.464556e-03 -1 1 5.464556e-03 -0.1989 72.8)"
           class="st0"
           cx="36.5"
           cy="36.5"
           rx="35.9"
           ry="35.9"
           id="ellipse11" /><g
           id="pause_9_"><g
             id="g14"><path
               class="st1"
               d="M31.9,20.9h-4.6c-1.3,0-2.3,1-2.3,2.2v26.8c0,1.2,1,2.2,2.3,2.2h4.6c1.3,0,2.3-1,2.3-2.2V23.1       C34.2,21.9,33.2,20.9,31.9,20.9z M45.6,20.9h-4.6c-1.3,0-2.3,1-2.3,2.2v26.8c0,1.2,1,2.2,2.3,2.2h4.6c1.3,0,2.3-1,2.3-2.2V23.1       C47.9,21.9,46.9,20.9,45.6,20.9z"
               id="path16" /></g></g></g></g></switch></svg>