<?xml version="1.0" encoding="UTF-8" standalone="no"?>
<!-- Generator: Adobe Illustrator 21.0.0, SVG Export Plug-In . SVG Version: 6.00 Build 0)  -->

<svg
   xmlns:i="&amp;ns_ai;"
   xmlns:dc="http://purl.org/dc/elements/1.1/"
   xmlns:cc="http://creativecommons.org/ns#"
   xmlns:rdf="http://www.w3.org/1999/02/22-rdf-syntax-ns#"
   xmlns:svg="http://www.w3.org/2000/svg"
   xmlns="http://www.w3.org/2000/svg"
   xmlns:sodipodi="http://sodipodi.sourceforge.net/DTD/sodipodi-0.dtd"
   xmlns:inkscape="http://www.inkscape.org/namespaces/inkscape"
   version="1.1"
   id="Layer_1"
   x="0px"
   y="0px"
   viewBox="0 0 100 100"
   style="enable-background:new 0 0 100 100;"
   xml:space="preserve"
   inkscape:version="0.91 r13725"
   sodipodi:docname="HMI_Settings_TimeIcon.svg"><metadata
     id="metadata21"><rdf:RDF><cc:Work
         rdf:about=""><dc:format>image/svg+xml</dc:format><dc:type
           rdf:resource="http://purl.org/dc/dcmitype/StillImage" /></cc:Work></rdf:RDF></metadata><defs
     id="defs19" /><sodipodi:namedview
     pagecolor="#ffffff"
     bordercolor="#666666"
     borderopacity="1"
     objecttolerance="10"
     gridtolerance="10"
     guidetolerance="10"
     inkscape:pageopacity="0"
     inkscape:pageshadow="2"
     inkscape:window-width="2560"
     inkscape:window-height="1464"
     id="namedview17"
     showgrid="false"
     inkscape:zoom="2.36"
     inkscape:cx="-145.55085"
     inkscape:cy="50"
     inkscape:window-x="0"
     inkscape:window-y="0"
     inkscape:window-maximized="1"
     inkscape:current-layer="Layer_1" /><style
     type="text/css"
     id="style3">
	.st0{fill:#FFFFFF;}
</style><switch
     id="switch5"><g
       i:extraneous="self"
       id="g7"><g
         id="g9"><g
           id="g11"><path
             class="st0"
             d="M50,81.2c-17.3,0-31.4-14-31.4-31.2c0-1.3,0.1-2.7,0.3-4l1.9,0.2c-0.2,1.3-0.2,2.5-0.2,3.8      c0,16.2,13.2,29.3,29.5,29.3S79.5,66.2,79.5,50c0-16.2-13.2-29.3-29.5-29.3c-7.2,0-14.1,2.6-19.5,7.3l-1.2-1.4      c5.7-5,13.1-7.8,20.7-7.8c17.3,0,31.4,14,31.4,31.2C81.4,67.2,67.3,81.2,50,81.2z"
             id="path13" /></g><polygon
           class="st0"
           points="51,49.8 51,33.7 49,33.7 49,51.7 50,51.7 51,51.7 60,51.7 60,49.8    "
           id="polygon15" /></g></g></switch></svg>